<svg width="1318" height="1093" viewBox="0 0 1318 1093" fill="none" xmlns="http://www.w3.org/2000/svg">
<path d="M1292.9 732.846C1268.93 1000.46 1000.05 938.535 664.226 908.449C328.401 878.363 52.7986 891.51 76.7739 623.895C100.749 356.28 373.731 372.39 709.556 402.476C1045.38 432.562 1316.88 465.232 1292.9 732.846Z" fill="#FFCF24" fill-opacity="0.8"/>
<path d="M1148.2 312.833C1141.57 302.981 1133.29 294.462 1123.77 287.688L1157.71 80.5754C1157.91 79.3729 1157.87 78.1407 1157.62 76.9492C1157.36 75.7577 1156.88 74.6302 1156.21 73.6311C1155.54 72.632 1154.68 71.7808 1153.7 71.1261C1152.71 70.4715 1151.61 70.0262 1150.47 69.8157L1101.52 60.84C1100.37 60.6295 1099.2 60.6579 1098.06 60.9236C1096.92 61.1893 1095.85 61.687 1094.9 62.3885C1093.95 63.0899 1093.14 63.9812 1092.52 65.0116C1091.89 66.042 1091.47 67.1912 1091.28 68.3937L1057.99 271.533C1039.29 274.436 1021.95 283.441 1008.44 297.271C994.936 311.101 985.941 329.053 982.735 348.579L909.933 792.864C908.164 803.662 910.562 814.768 916.6 823.74C922.638 832.712 931.821 838.814 942.13 840.704L1046.98 859.931C1057.24 861.812 1067.78 859.347 1076.28 853.078C1084.78 846.808 1090.55 837.248 1092.31 826.5L1164.28 387.263C1166.41 374.375 1166.09 361.164 1163.33 348.391C1160.57 335.617 1155.43 323.533 1148.2 312.833V312.833Z" fill="#749F50"/>
<path d="M1159.18 86.7338L1155.92 85.5008C1155.92 85.5008 1161.3 73.8537 1150.9 70.8506C1140.51 67.8474 1124.36 65.7213 1124.36 65.7213L1090.84 281.899C1090.84 281.899 1100.85 310.526 1110.15 337.157C1119.45 363.787 1066.16 655.345 1028.82 856.957L1050.16 860.248C1073.5 859.794 1081.86 852.682 1090.26 830.527L1154.55 447.469C1168.08 357.354 1171.38 325.777 1121.9 287.543L1152.16 106.526L1156.71 107.714L1159.18 86.7338Z" fill="#618C3D"/>
<path d="M1154.47 447.153L972.063 413.706L930.705 666.1L1113.11 699.548L1154.47 447.153Z" fill="#F9E0B7"/>
<path d="M1160.83 86.2942L1156.89 85.5715L1157.71 80.5753C1157.91 79.3728 1157.87 78.1407 1157.62 76.9492C1157.36 75.7577 1156.88 74.6302 1156.21 73.631C1155.54 72.6319 1154.68 71.7807 1153.7 71.126C1152.71 70.4714 1151.62 70.0261 1150.47 69.8156L1101.52 60.8399C1100.37 60.6294 1099.2 60.6578 1098.06 60.9235C1096.92 61.1892 1095.85 61.6869 1094.9 62.3884C1093.95 63.0898 1093.14 63.9811 1092.52 65.0115C1091.89 66.0419 1091.47 67.1912 1091.28 68.3936L1090.46 73.3899L1086.52 72.6673L1083.04 93.8967L1086.98 94.6193L1069.2 203.125L1135.63 215.307L1153.41 106.801L1157.35 107.524L1160.83 86.2942Z" fill="#997F2A"/>
<path d="M689.887 636.775C638.022 706.269 559.136 740.809 488.847 732.016C472.599 729.988 456.813 725.634 441.924 718.856C439.305 696.26 437.126 673.55 435.391 650.717C429.746 576.911 428.686 501.949 432.219 426.292C432.743 415.044 434.858 404.007 438.327 393.449C441.767 382.98 446.522 372.982 452.375 363.706C473.955 329.418 510.336 304.869 549.528 302.67C550.161 302.632 550.8 302.599 551.438 302.566C569.794 301.533 586.748 305.594 601.023 313.743C607.303 317.322 613.062 321.697 618.197 326.772C631.008 339.415 639.932 356.441 643.312 376.522C654.395 442.392 669.755 505.611 689.012 565.865C694.163 582.013 699.599 597.942 705.303 613.662C700.65 621.518 695.509 629.242 689.887 636.775Z" fill="#674172"/>
<path d="M467.621 342.543C472.469 417.985 539.74 732.333 515.896 733.706C492.052 735.08 482.79 732.203 468.08 728.287C453.37 724.371 447.948 368.902 467.621 342.543Z" fill="#957A9D"/>
<path d="M535.652 309.143C532.689 310.047 529.858 309.17 528.524 306.602C522.526 295.076 519.031 265.497 548.736 236.054C552.405 232.416 557.317 231.962 559.706 235.044C562.092 238.125 561.052 243.574 557.381 247.212C531.675 272.693 542.423 294.207 542.892 295.11C544.745 298.669 543.028 304.126 539.061 307.3C537.956 308.182 536.794 308.794 535.652 309.143Z" fill="#739937"/>
<path d="M564.497 327.961C576.495 376.744 530.445 415.039 530.445 415.039C508.17 380.686 515.503 350.823 519.451 340.013C520.391 337.429 521.14 335.94 521.253 335.726C521.258 335.719 521.258 335.707 521.263 335.7C520.652 336.682 520.022 337.651 519.368 338.602C494.662 375.076 446.564 393.415 446.564 393.415C439.101 349.191 471.078 319.405 493.159 304.488C503.027 297.821 513.729 293.058 524.672 290.281L535.182 287.61C541.699 285.957 548.186 285.043 554.539 284.871C554.544 284.864 554.544 284.864 554.544 284.864C576.719 284.206 597.254 292.348 611.427 308.416C637.328 337.761 621.831 369.399 621.831 369.399C576.812 359.041 566.499 334.567 564.497 327.961Z" fill="#8DC63F"/>
<path d="M554.589 284.363L552.959 285.456C553.905 284.761 554.482 284.421 554.587 284.362C548.251 284.561 541.777 285.501 535.271 287.182L524.78 289.896C513.855 292.719 503.163 297.525 493.294 304.232C471.211 319.238 439.198 349.15 446.453 393.332C446.453 393.332 494.495 374.791 519.289 338.22L519.289 338.227L519.366 339.638C515.383 350.461 507.945 380.347 530.014 414.597C521.087 364.562 554.589 284.363 554.589 284.363Z" fill="#739937"/>
<path d="M796.964 194.774C796.964 194.774 783.26 120.679 805.123 70.2092C808.347 62.7569 802.991 53.0311 796.364 54.4613C766.66 60.9045 713.952 65.5279 717.734 142.374C718.436 156.635 710.319 168.181 699.424 168.41C640.718 169.642 627.959 238.868 625.455 278.225C624.9 286.997 632.722 293.217 638.127 288.402C674.72 255.757 745.621 267.769 745.621 267.769L796.964 194.774Z" fill="#B0BEC5"/>
<path d="M723.289 542.609C724.453 452.799 680.331 405.911 727.53 384.969C774.728 364.027 791.72 439.871 791.72 439.871L786.178 542.881L723.289 542.609Z" fill="#B0BEC5"/>
<path d="M524.902 836.959L533.346 840.223C544.034 844.336 550.896 858.679 548.727 872.322C548.111 876.2 547.942 880.129 548.191 884.025C549.183 899.519 556.748 914.229 568.266 921.436C641.441 967.162 720.447 964.559 789.667 929.35L789.716 929.295C789.716 929.295 789.726 929.282 789.734 929.247L840.092 848.919L794.303 659.278L694.37 593.646L646.078 588.875C507.527 627.478 496.177 740.833 499.554 796.793C500.673 815.267 511.023 831.614 524.902 836.959Z" fill="#B0BEC5"/>
<path d="M789.667 929.35C911.628 867.32 1003.19 704.057 978.914 525.691C961.713 399.365 898.45 278.827 814.753 202.468C796.959 186.227 774.009 186.815 759.131 204.188L755.908 207.952L838.212 443.009L794.303 659.278L782.803 766.109L782.804 766.123C811.083 855.448 789.722 929.302 789.722 929.302L789.667 929.35Z" fill="#5A7582"/>
<ellipse rx="86.289" ry="120.068" transform="matrix(-0.999991 -0.0043246 -0.0638837 -0.997957 586.099 805.618)" fill="#B0BEC5"/>
<path d="M646.078 588.875C725.349 643.876 764.483 708.248 782.803 766.11C782.803 766.11 909.061 623.07 877.328 464.332C845.59 305.594 755.908 207.952 755.908 207.952C742.141 224.023 738.672 250.597 746.995 274.188C785.155 382.314 788.062 549.295 646.078 588.875V588.875Z" fill="#90A4AE"/>
<path d="M785.194 231.669C797.451 217.354 812.728 210.153 830.18 217.275C825.12 212.175 819.975 207.233 814.753 202.469C799.18 188.26 779.661 186.93 765.062 198.462C761.679 201.131 758.823 204.553 755.908 207.953L773.221 257.415C775.199 247.59 779.222 238.642 785.194 231.669V231.669Z" fill="#546E7A"/>
<path d="M500.208 807.008C500.828 816.699 502.738 829.92 505.381 839.62C505.381 839.62 505.381 839.62 507.065 834.343C507.623 822.014 507.065 834.343 507.623 822.014C504.241 766.047 536.815 651.201 675.365 612.591C686.378 609.521 696.51 605.684 705.83 601.169L694.37 593.646L646.078 588.875C578.965 607.57 541.701 643.811 521.495 682.569C504.478 715.216 497.077 755.722 499.554 796.793C499.761 800.2 499.375 803.701 500.208 807.008Z" fill="#8597A1"/>
<path d="M898.715 638.04C962.874 640.643 1029.77 599.596 1011.46 502.498C996.553 438.113 944.802 472.255 927.332 494.206C909.862 516.158 886.877 540.219 868.17 551.41C864.275 553.739 861.5 558.496 859.551 564.571C848.916 597.72 870.23 636.885 898.715 638.04V638.04Z" fill="#B0BEC5"/>
<path d="M867.21 767.039C875.288 752.506 876.073 734.989 868.96 727.926C861.848 720.862 849.531 726.92 841.452 741.452C833.374 755.992 832.589 773.502 839.702 780.565C846.82 787.636 859.132 781.578 867.21 767.039Z" fill="#B0BEC5"/>
<path d="M923.207 714.343C926.849 699.605 924.143 684.723 917.167 681.114C910.192 677.506 901.582 686.531 897.939 701.269C894.297 716.014 897.003 730.896 903.979 734.505C910.96 738.113 919.565 729.088 923.207 714.343Z" fill="#B0BEC5"/>
<path d="M926.439 424.736C922.929 409.134 914.411 398.046 907.41 399.977C900.405 401.908 897.577 416.119 901.082 431.728C904.592 447.329 913.11 458.41 920.116 456.486C927.116 454.555 929.949 440.344 926.439 424.736Z" fill="#B0BEC5"/>
<path d="M896.736 348.218C891.688 335.816 883.181 328.43 877.732 331.73C872.283 335.031 871.956 347.76 877.009 360.161C882.058 372.569 890.565 379.948 896.013 376.648C901.462 373.348 901.79 360.619 896.736 348.218Z" fill="#B0BEC5"/>
<path d="M676.693 612.198C817.318 571.944 814.32 405.692 776.288 297.911C769.104 277.559 770.718 254.996 780.132 238.865C765.784 218.71 755.908 207.953 755.908 207.953C746.443 218.998 741.844 235.011 742.602 251.612C742.948 259.156 744.396 266.814 746.995 274.188C771.095 342.473 779.114 425.379 754.732 490.047C746.793 511.111 735.325 530.357 719.603 546.556C701.264 565.456 677.136 580.215 646.078 588.868C657.043 596.478 667.208 604.271 676.693 612.198V612.198Z" fill="#8597A1"/>
<path d="M480.647 561.226C602.078 773.795 603.033 978.004 525.141 1017.66C447.25 1057.31 358.773 901.686 228.234 676.615C89.5884 437.565 35.2726 281.436 113.164 241.781C191.055 202.127 359.216 348.657 480.647 561.226Z" fill="#F3A543"/>
<path d="M484.247 568.323C603.099 776.377 617.259 969.515 552.515 1002.48C487.772 1035.44 401.125 883.14 273.584 662.736C138.122 428.642 80.973 277.858 145.717 244.897C210.46 211.937 365.395 360.269 484.247 568.323Z" fill="#F4B04F"/>
<path d="M286.607 318.405C272.502 331.509 260.711 345.712 253.825 357.891C246.94 370.069 245.525 379.224 249.892 383.343C254.259 387.461 264.05 386.205 277.112 379.852C290.173 373.498 320.075 354.024 319.538 349.462C319.001 344.9 306.512 331.925 306.512 331.925C292.775 315.479 291.471 313.885 286.607 318.405Z" fill="#F3A543"/>
<path d="M418.315 493.618C381.067 520.997 347.635 550.001 325.373 574.249C303.11 598.497 293.841 616.003 299.604 622.916C305.367 629.829 325.691 625.583 356.103 611.111C386.516 596.639 459.621 554.232 461.774 545.749C463.927 537.265 448.289 515.242 448.289 515.242C432.624 486.925 431.161 484.176 418.315 493.618Z" fill="#F3A543"/>
<path d="M350.132 396.871C327.819 417.603 308.822 439.751 297.321 458.443C285.82 477.136 282.756 490.841 288.804 496.545C294.852 502.249 309.516 499.484 329.571 488.857C349.625 478.231 396.058 446.598 395.741 439.884C395.424 433.169 378.253 415.082 378.253 415.082C359.595 391.964 357.828 389.721 350.132 396.871Z" fill="#F3A543"/>
<path d="M1011.18 742.743C998.971 758.166 987.053 773.323 985.255 783.898C978.979 787.217 969.923 785.902 965.305 781.766C965.507 780.626 965.788 779.501 966.148 778.398L967.486 774.89C977.498 751.859 1015.39 715.556 1019.49 693.901C1019.94 691.4 1021.4 689.183 1023.56 687.729C1025.71 686.275 1028.4 685.701 1031.03 686.132C1032.31 686.347 1033.55 686.808 1034.66 687.485C1035.76 688.163 1036.72 689.044 1037.47 690.076C1038.99 692.189 1039.66 694.751 1039.33 697.274C1037.9 709.094 1024.38 726.068 1011.18 742.732C1011.18 742.737 1011.18 742.737 1011.18 742.743V742.743Z" fill="#E29454"/>
<path d="M1084.33 739.25C1084.49 739.671 1084.55 740.12 1084.51 740.563C1084.47 741.007 1084.33 741.435 1084.09 741.817L1079.35 749.544C1075.06 756.541 1069.15 762.486 1062.06 766.928C1059.54 765.421 1056.94 764.059 1054.26 762.852C1023.23 748.836 1000.5 773.711 986.509 783.263C986.094 783.547 985.661 783.806 985.212 784.039C987.021 773.399 999.001 758.148 1011.27 742.628C1011.27 742.622 1011.27 742.622 1011.28 742.617C1027.66 725.959 1051.95 725.197 1073.45 733.764L1082.42 737.333C1082.86 737.508 1083.26 737.769 1083.59 738.099C1083.92 738.429 1084.17 738.822 1084.33 739.25V739.25Z" fill="#8DC63F"/>
<path d="M1082.44 737.231L1081.1 736.697C1077.72 739.542 1074.21 742.425 1070.67 745.319C1070.67 745.324 1070.67 745.324 1070.66 745.328C1051.92 757.599 1029.38 754.463 1010.73 743.253C998.651 758.559 986.997 773.541 985.212 784.039C985.661 783.805 986.094 783.546 986.51 783.262C1000.51 773.69 1023.25 748.768 1054.27 762.798C1056.95 764.007 1059.55 765.37 1062.07 766.879C1069.16 762.428 1075.07 756.472 1079.36 749.462L1084.11 741.721C1084.34 741.338 1084.48 740.909 1084.53 740.465C1084.57 740.021 1084.51 739.572 1084.35 739.15C1084.19 738.721 1083.93 738.328 1083.6 737.997C1083.27 737.666 1082.88 737.405 1082.44 737.231V737.231Z" fill="#739937"/>
<path d="M966.156 778.407C965.794 779.515 965.512 780.645 965.309 781.792C964.451 781.044 963.738 780.157 963.206 779.172C956.178 765.836 941.893 738.406 912.278 737.377C907.094 723.649 905.46 703.63 909.894 688.837L913.241 677.645C913.406 677.094 913.693 676.586 914.084 676.154C914.475 675.722 914.96 675.378 915.506 675.144C916.053 674.91 916.647 674.792 917.249 674.798C917.851 674.804 918.447 674.934 918.996 675.18L930.151 680.146C946.453 687.411 959.569 699.996 967.104 715.604C974.64 731.212 976.092 748.8 971.195 765.158L967.501 774.882C966.969 776.097 966.521 777.272 966.156 778.407V778.407Z" fill="#8DC63F"/>
<path d="M913.234 684.303L913.015 678.568L909.837 689.174C905.414 703.904 907.06 723.844 912.253 737.519C941.864 738.564 956.166 765.893 963.201 779.181C963.734 780.162 964.447 781.046 965.306 781.791C965.507 780.65 965.789 779.524 966.15 778.421C966.512 777.292 966.959 776.122 967.493 774.911L971.18 765.228C972.902 759.494 973.85 753.562 974.002 747.574C958.163 744.579 943.682 736.795 932.728 725.389C921.773 713.982 914.933 699.568 913.234 684.303V684.303Z" fill="#739937"/>
<path d="M1061.71 766.223C1098.42 788.15 1105.42 835.266 1099.76 868.533C1089.69 927.78 1014.76 998.184 975.443 991.499C965.697 989.842 957.366 983.176 951.347 978.204C946.071 973.848 935.042 973.203 930.96 974.737C923.657 977.483 913.313 980.935 903.824 979.322C856.84 971.333 817.276 882.403 827.13 822.177C831.878 793.175 858.01 741.057 905.563 736.936C907.651 736.752 909.752 736.694 911.853 736.762C941.447 737.801 955.734 765.151 962.763 778.449C963.295 779.431 964.007 780.316 964.866 781.061C969.507 785.206 978.605 786.528 984.909 783.207C985.357 782.975 985.79 782.717 986.205 782.435C1000.19 772.934 1022.89 748.183 1053.91 762.159C1056.59 763.363 1059.2 764.72 1061.71 766.223V766.223Z" fill="#FC324B"/>
<path d="M885.363 860.271C874.22 830.466 870.603 768.341 912.72 741.296C914.568 740.105 916.495 739.027 918.49 738.07C918.803 737.921 919.116 737.78 919.43 737.639C916.971 737.153 914.477 736.865 911.974 736.779C909.87 736.709 907.765 736.767 905.673 736.95C858.041 741.058 831.878 793.172 827.13 822.175C817.277 882.401 856.937 971.35 904.008 979.353C913.514 980.969 923.875 977.52 931.19 974.776C935.279 973.243 946.328 973.891 951.615 978.249C957.645 983.223 965.994 989.892 975.757 991.552C989.492 993.888 1007.56 986.847 1025.7 974.176C976.728 974.153 906.18 915.937 885.363 860.271Z" fill="#E01B33"/>
</svg>
