<?xml version="1.0" encoding="UTF-8" standalone="no"?>
<!-- Created with Inkscape (http://www.inkscape.org/) -->

<svg
   xmlns:dc="http://purl.org/dc/elements/1.1/"
   xmlns:cc="http://creativecommons.org/ns#"
   xmlns:rdf="http://www.w3.org/1999/02/22-rdf-syntax-ns#"
   xmlns:svg="http://www.w3.org/2000/svg"
   xmlns="http://www.w3.org/2000/svg"
   xmlns:sodipodi="http://sodipodi.sourceforge.net/DTD/sodipodi-0.dtd"
   xmlns:inkscape="http://www.inkscape.org/namespaces/inkscape"
   version="1.1"
   id="svg40"
   width="1392"
   height="1348"
   viewBox="0 0 1392 1348"
   sodipodi:docname="CarotteCoupée.svg"
   inkscape:version="0.92.5 (2060ec1f9f, 2020-04-08)">
  <metadata
     id="metadata46">
    <rdf:RDF>
      <cc:Work
         rdf:about="">
        <dc:format>image/svg+xml</dc:format>
        <dc:type
           rdf:resource="http://purl.org/dc/dcmitype/StillImage" />
        <dc:title></dc:title>
      </cc:Work>
    </rdf:RDF>
  </metadata>
  <defs
     id="defs44" />
  <sodipodi:namedview
     pagecolor="#ffffff"
     bordercolor="#666666"
     borderopacity="1"
     objecttolerance="10"
     gridtolerance="10"
     guidetolerance="10"
     inkscape:pageopacity="0"
     inkscape:pageshadow="2"
     inkscape:window-width="1364"
     inkscape:window-height="733"
     id="namedview42"
     showgrid="false"
     inkscape:zoom="0.70029674"
     inkscape:cx="717.02954"
     inkscape:cy="925.66711"
     inkscape:window-x="0"
     inkscape:window-y="0"
     inkscape:window-maximized="0"
     inkscape:current-layer="svg40" />
  <g
     id="g3778"
     transform="matrix(1.3893596,0,0,1.4275861,-3071.1446,-423.10533)">
    <g
       id="g3902">
      <g
         transform="matrix(0.96467437,0,0,0.87072009,2070.5425,204.25931)"
         id="g3796">
        <path
           sodipodi:nodetypes="ccssccssccssccscccsscscccc"
           inkscape:connector-curvature="0"
           id="path3798"
           d="m 666.9724,742.01151 c -0.5383,-210.95569 0,0 -0.5383,-210.95569 16.94877,-14.84619 22.59281,-22.38484 48.61452,-22.38484 26.02171,0 45.05119,5.95427 62.81132,19.6535 21.77188,16.79366 29.78405,34.4332 29.8322,65.67832 l 0.0232,15.02697 -7,-4.09137 c -22.81971,-13.33767 -44.56544,-22.22894 -58.90989,-24.08675 -10.59432,-1.37211 -13.91678,-0.0655 -16.65728,6.55064 -1.36771,3.30195 -1.28624,4.65611 0.48637,8.08396 2.25437,4.35945 3.58565,4.87393 15.73981,6.08269 12.86543,1.2795 29.044,8.26414 52.00766,22.45283 l 13,8.03239 -0.0777,5.46082 c -0.0428,3.00347 -1.09274,14.82498 -2.33333,26.27004 l -2.2556,20.80919 -10.66667,-5.92928 c -5.86666,-3.26112 -16.66666,-8.34977 -24,-11.30813 -11.13284,-4.49114 -15.3308,-5.48954 -25.43645,-6.04955 -11.97163,-0.66341 -12.1346,-0.63068 -15,3.01208 -6.11204,7.7702 -1.49376,14.35827 11.17484,15.94109 16.93632,2.11606 45.78833,14.57528 58.16479,25.11742 l 3.44137,2.93132 -5.53278,33.73207 -84.71313,0.0398 z"
           style="fill:#fe5b00;stroke-width:1.33333337" />
      </g>
      <path
         inkscape:connector-curvature="0"
         id="path3780"
         d="m 2713.4338,666.66028 c 0,-22.04088 0.408,-134.26796 0.308,-183.06596 8.3464,-11.91165 8.3755,-13.84645 16.8222,-18.72752 l 9.2292,-5.33333 h 14.7041 c 13.1648,0 15.5026,0.3743 22.3335,3.5759 9.1382,4.28299 20.3328,15.22656 23.7639,23.23095 l 2.4783,5.78171 14.7854,-0.1328 c 14.2209,-0.12774 15.1174,0.0359 23.484,4.28246 17.4597,8.86207 26.9738,23.34831 28.1398,42.84584 0.5513,9.2178 0.1757,12.36976 -2.232,18.73271 -4.2232,11.16072 -10.474,19.74532 -18.0489,24.78744 -3.6667,2.44068 -6.8618,5.29677 -7.1004,6.34688 -0.2385,1.05011 0.9458,4.14137 2.6319,6.86949 2.4975,4.04112 3.16,7.31214 3.5751,17.65312 0.6184,15.4024 -0.8459,21.33534 -7.857,31.83446 -5.9908,8.97132 -17.7619,17.81525 -27.0419,20.31728 -9.199,2.48017 -27.7327,1.83762 -34.5987,-1.19952 -3.2623,-1.4431 -6.3044,-3.22707 -6.7601,-3.9644 -0.4557,-0.73732 -0.8994,-11.97346 -0.986,-24.96916 l -0.1576,-23.62856 8.8561,-8.92443 c 10.7749,-10.85811 12.5507,-16.44851 6.9911,-22.00813 -4.1529,-4.15287 -7.3812,-4.33195 -12.0394,-0.66786 l -3.5131,2.7635 0.062,-11.76344 0.062,-11.76344 8.6296,-9.33334 c 4.7463,-5.13333 8.9518,-10.55674 9.3456,-12.05204 1.7338,-6.58392 -5.0957,-13.80653 -11.087,-11.72524 -1.2897,0.44803 -5.7625,4.13032 -9.9395,8.18287 l -7.5946,7.36828 -5.4093,-4.88693 c -6.731,-6.08108 -10.6803,-6.25467 -15.3746,-0.67583 -4.5713,5.43271 -3.7281,9.02703 4.0747,17.36881 l 5.8983,6.30584 v 11.57291 11.57291 l -6.7434,-6.30772 c -5.7005,-5.33211 -7.2976,-6.16866 -10.3259,-5.4086 -7.0338,1.76537 -10.4977,7.47633 -8.2001,13.51949 0.7322,1.92577 6.6338,8.7138 13.1146,15.08451 11.6042,11.40697 11.7913,11.6933 12.3024,18.83192 0.2855,3.98685 0.2191,15.01533 -0.1476,24.50773 l -0.6666,17.25889 -6,2.95838 c -6.8708,3.38773 -18.3411,4.53754 -29.7675,2.98397 z"
         style="fill:#254900;stroke-width:1.33333337"
         sodipodi:nodetypes="ccccscccscccscccccccccccccccccccccccccccccccccccc" />
    </g>
  </g>
</svg>
