<svg width="1055" height="973" viewBox="0 0 1055 973" fill="none" xmlns="http://www.w3.org/2000/svg">
<path d="M229.922 424.736C229.922 424.736 417.375 369.045 543.642 365.542C672.811 361.958 867.471 409.396 867.471 409.396" stroke="#4A9ABF" stroke-width="6" stroke-miterlimit="2.9238" stroke-linecap="round" stroke-dasharray="20 20"/>
<path d="M198.625 555.846C244.804 543.075 453.777 697.057 446.251 689.37L70.1151 850.821C70.1151 850.821 103.278 730.388 128.586 677.153C153.895 623.918 152.445 568.617 198.625 555.846Z" fill="#72B7D6"/>
<path d="M355.49 465.25C433.161 439.398 683.628 684.436 683.628 684.436L170.476 753.078C170.476 753.078 277.819 491.103 355.49 465.25Z" fill="#72B7D6"/>
<path d="M209.748 556.719C228.343 555.043 254.256 569.81 254.256 569.81L448.87 716.424L351.127 729.515L254.256 641.372C254.256 641.372 171.039 560.209 209.748 556.719Z" fill="#4A9ABF"/>
<path d="M372.367 463.483C413.089 463.483 487.269 517.447 487.269 517.447L681.882 673.662H550.976L523.05 628.717C523.05 628.717 506.997 600.685 495.123 583.773C456.555 528.842 328.317 463.483 372.367 463.483Z" fill="#4A9ABF"/>
<path d="M944.567 650.971C944.567 650.971 1025.73 650.971 1029.09 659.283C1032.46 667.595 1029.09 796.713 1029.09 796.713L940.329 787.529L944.567 650.971Z" fill="#7693B3"/>
<rect x="1001.46" y="658.826" width="22.449" height="32.0796" rx="8" transform="rotate(3.42224 1001.46 658.826)" fill="#98B8DF"/>
<rect x="999.717" y="695.479" width="22.449" height="32.0796" rx="8" transform="rotate(3.42224 999.717 695.479)" fill="#98B8DF"/>
<path d="M865.913 532.184C866.172 525.009 872.197 519.402 879.372 519.66L983.651 523.412C990.826 523.67 996.434 529.696 996.175 536.871L987.797 769.758C987.539 776.934 981.513 782.541 974.338 782.283L870.059 778.531C862.884 778.273 857.277 772.247 857.535 765.072L865.913 532.184Z" fill="#5C7287"/>
<rect x="881.94" y="531.411" width="42.2162" height="20.1551" rx="8" transform="rotate(3.0725 881.94 531.411)" fill="#7A95B2"/>
<rect x="936.047" y="533.156" width="42.2162" height="20.1551" rx="8" transform="rotate(3.0725 936.047 533.156)" fill="#7A95B2"/>
<rect x="880.194" y="557.592" width="42.2162" height="20.1551" rx="8" transform="rotate(3.0725 880.194 557.592)" fill="#7A95B2"/>
<rect x="934.302" y="559.337" width="42.2162" height="20.1551" rx="8" transform="rotate(3.0725 934.302 559.337)" fill="#7A95B2"/>
<rect x="878.449" y="583.773" width="42.2162" height="20.1551" rx="8" transform="rotate(3.0725 878.449 583.773)" fill="#7A95B2"/>
<rect x="932.556" y="585.518" width="42.2162" height="20.1551" rx="8" transform="rotate(3.0725 932.556 585.518)" fill="#7A95B2"/>
<rect x="876.703" y="611.7" width="42.2162" height="20.1551" rx="8" transform="rotate(3.0725 876.703 611.7)" fill="#7A95B2"/>
<rect x="930.811" y="613.445" width="42.2162" height="20.1551" rx="8" transform="rotate(3.0725 930.811 613.445)" fill="#7A95B2"/>
<rect x="874.958" y="639.626" width="42.2162" height="20.1551" rx="8" transform="rotate(3.0725 874.958 639.626)" fill="#7A95B2"/>
<rect x="929.066" y="639.626" width="42.2162" height="20.1551" rx="8" transform="rotate(3.0725 929.066 639.626)" fill="#7A95B2"/>
<rect x="927.32" y="665.807" width="42.2162" height="20.1551" rx="8" transform="rotate(3.0725 927.32 665.807)" fill="#7A95B2"/>
<rect x="927.32" y="693.734" width="42.2162" height="20.1551" rx="8" transform="rotate(3.0725 927.32 693.734)" fill="#7A95B2"/>
<path d="M796.24 601.961C796.86 594.808 803.162 589.512 810.314 590.133L913.379 599.071C920.532 599.691 925.828 605.993 925.207 613.146L914.952 731.388C914.332 738.541 908.031 743.836 900.878 743.216L797.813 734.277C790.66 733.657 785.364 727.356 785.985 720.203L796.24 601.961Z" fill="#7994B2"/>
<rect x="804.901" y="601.359" width="32.1776" height="36.5657" rx="8" transform="rotate(4.50437 804.901 601.359)" fill="#98B8DF"/>
<rect x="885.85" y="610.667" width="32.1776" height="36.5657" rx="8" transform="rotate(4.50437 885.85 610.667)" fill="#98B8DF"/>
<rect x="845.706" y="605.431" width="32.1776" height="36.5657" rx="8" transform="rotate(4.50437 845.706 605.431)" fill="#98B8DF"/>
<rect x="800.325" y="643.83" width="32.1776" height="36.5657" rx="8" transform="rotate(4.50437 800.325 643.83)" fill="#98B8DF"/>
<rect x="881.275" y="653.138" width="32.1776" height="36.5657" rx="8" transform="rotate(4.50437 881.275 653.138)" fill="#98B8DF"/>
<rect x="841.13" y="647.901" width="32.1776" height="36.5657" rx="8" transform="rotate(4.50437 841.13 647.901)" fill="#98B8DF"/>
<path d="M1053.66 837.731C1053.66 924.969 830.148 973 554.438 973C278.728 973 53.5338 947.66 53.5338 860.421C75.4293 777.514 278.728 657.08 554.438 657.08C830.148 657.08 1053.66 750.492 1053.66 837.731Z" fill="#7BC093"/>
<path d="M1054.46 836.858C1029.22 918.02 848.397 918.02 573.667 918.02C298.937 918.02 111.132 914.529 55.2792 856.057C77.0969 773.15 282.29 656.208 557.02 656.208C831.75 656.208 1054.46 749.619 1054.46 836.858Z" fill="#AED6B4"/>
<path d="M840.715 695.479C818.912 703.596 667.919 664.062 564.067 667.553C532.667 668.608 360.726 678.025 360.726 678.025C360.726 678.025 426.179 656.277 564.067 655.404C703.7 655.404 840.715 686.756 840.715 695.479Z" fill="#D3E8D7"/>
<path d="M173.967 756.399C201.254 745.357 206.519 745.065 230.693 751.688C294.401 769.142 302.746 784.048 351.999 792.705C481.449 815.457 559.198 722.855 687.991 749.07C759.11 763.545 804.934 778.742 847.696 792.705C890.459 806.668 936.712 763.551 1004.78 763.551C1004.78 763.551 977.73 857.285 891.332 857.285C804.934 857.285 795.334 788.859 663.555 788.859C531.777 788.859 426.179 870.376 332.8 830.231C239.42 790.087 231.566 776.996 201.021 781.707C170.476 786.419 108.514 790.604 108.514 790.604C108.514 790.604 146.337 767.58 173.967 756.399Z" fill="#D3E8D7"/>
<path d="M184.44 739.115C212.07 727.933 223.576 730.95 247.275 739.115C310.109 760.763 301.874 768.857 351.127 777.514C480.577 800.265 560.943 707.664 689.737 733.879C760.856 748.354 805.807 762.678 848.569 776.641C891.332 790.604 945.44 725.151 1001.29 763.551C1001.29 763.551 977.73 836.34 891.332 836.34C804.934 836.34 795.334 771.76 663.555 771.76C531.777 771.76 426.179 849.431 332.8 809.286C239.42 769.142 231.566 756.051 201.021 760.763C170.476 765.474 121.605 784.495 121.605 784.495C121.605 784.495 156.809 750.296 184.44 739.115Z" fill="#8E5955"/>
<path d="M172.222 744.699C199.509 733.656 204.773 733.364 228.948 739.987C292.655 757.442 301.001 772.348 350.254 781.005C479.704 803.756 557.452 711.155 686.246 737.369C757.365 751.845 803.188 767.041 845.951 781.005C888.714 794.968 948.93 724.279 1004.78 762.678C1004.78 762.678 975.984 845.585 889.586 845.585C803.188 845.585 793.589 781.005 661.81 781.005C530.031 781.005 424.434 858.676 331.054 818.531C237.675 778.387 229.82 765.296 199.276 770.007C168.731 774.718 107.642 791.477 107.642 791.477C107.642 791.477 144.592 755.88 172.222 744.699Z" fill="#BD806E"/>
<path d="M221.093 842.094C221.093 847.878 205.464 852.567 186.185 852.567C166.906 852.567 151.277 847.878 151.277 842.094C151.277 836.31 166.906 831.622 186.185 831.622C205.464 831.622 221.093 836.31 221.093 842.094Z" fill="#79C193" fill-opacity="0.8"/>
<path d="M174.937 814.168H193.264C193.264 814.168 200.245 845.585 193.264 845.585C186.282 845.585 181.046 845.585 174.937 845.585C168.828 845.585 174.937 814.168 174.937 814.168Z" fill="#BA8170"/>
<path d="M174.937 814.168H193.264C193.264 814.168 194.136 818.531 193.264 822.022C192.391 825.513 185.409 823.767 179.3 822.022C173.192 820.276 174.937 814.168 174.937 814.168Z" fill="#975A57"/>
<path d="M225.457 751.521C225.457 807.186 209.503 815.913 184.44 815.913C159.377 815.913 138.084 802.628 142.55 751.521C146.913 701.588 162.867 686.941 187.931 686.941C212.994 686.941 225.457 720.788 225.457 751.521Z" fill="#518860"/>
<path d="M206.257 722.533C206.257 778.198 190.303 786.925 165.239 786.925C140.176 786.925 141.269 766.169 142.549 751.521C146.913 701.588 162.867 686.941 187.93 686.941C212.993 686.941 206.257 709.443 206.257 722.533Z" fill="#64A772"/>
<path d="M420.666 740.672C420.666 746.456 405.037 751.144 385.758 751.144C366.479 751.144 350.85 746.456 350.85 740.672C350.85 734.888 366.479 730.199 385.758 730.199C405.037 730.199 420.666 734.888 420.666 740.672Z" fill="#79C193" fill-opacity="0.8"/>
<path d="M374.51 712.745H392.837C392.837 712.745 399.818 744.163 392.837 744.163C385.855 744.163 380.619 744.163 374.51 744.163C368.401 744.163 374.51 712.745 374.51 712.745Z" fill="#BA8170"/>
<path d="M374.51 712.745H392.837C392.837 712.745 393.709 717.109 392.837 720.6C391.964 724.091 384.982 722.345 378.873 720.6C372.764 718.854 374.51 712.745 374.51 712.745Z" fill="#975A57"/>
<path d="M425.03 650.099C425.03 705.764 409.076 714.491 384.013 714.491C358.95 714.491 337.657 701.205 342.123 650.099C346.486 600.166 362.44 585.518 387.504 585.518C412.567 585.518 425.03 619.366 425.03 650.099Z" fill="#518860"/>
<path d="M405.83 621.111C405.83 676.776 389.876 685.503 364.812 685.503C339.749 685.503 340.842 664.747 342.122 650.099C346.486 600.166 362.44 585.518 387.503 585.518C412.566 585.518 405.83 608.021 405.83 621.111Z" fill="#64A772"/>
<path d="M893.673 747.654C893.673 753.437 878.044 758.126 858.765 758.126C839.486 758.126 823.857 753.437 823.857 747.654C823.857 741.87 839.486 737.181 858.765 737.181C878.044 737.181 893.673 741.87 893.673 747.654Z" fill="#79C193" fill-opacity="0.8"/>
<path d="M847.517 719.727H865.843C865.843 719.727 872.825 751.144 865.843 751.144C858.862 751.144 853.626 751.144 847.517 751.144C841.408 751.144 847.517 719.727 847.517 719.727Z" fill="#BA8170"/>
<path d="M847.517 719.727H865.843C865.843 719.727 866.716 724.091 865.843 727.581C864.971 731.072 857.989 729.327 851.88 727.581C845.771 725.836 847.517 719.727 847.517 719.727Z" fill="#975A57"/>
<path d="M898.037 657.08C898.037 712.745 882.083 721.472 857.019 721.472C831.956 721.472 810.663 708.187 815.13 657.08C819.493 607.148 835.447 592.5 860.51 592.5C885.573 592.5 898.037 626.347 898.037 657.08Z" fill="#518860"/>
<path d="M878.836 628.093C878.836 683.758 862.882 692.485 837.819 692.485C812.756 692.485 813.849 671.728 815.129 657.08C819.493 607.148 835.447 592.5 860.51 592.5C885.573 592.5 878.836 615.002 878.836 628.093Z" fill="#64A772"/>
<path d="M732.499 875.257C732.499 881.041 716.87 885.729 697.591 885.729C678.312 885.729 662.683 881.041 662.683 875.257C662.683 869.473 678.312 864.784 697.591 864.784C716.87 864.784 732.499 869.473 732.499 875.257Z" fill="#79C193" fill-opacity="0.8"/>
<path d="M688.684 843.651H707.011C707.011 843.651 713.993 875.069 707.011 875.069C700.029 875.069 694.793 875.069 688.684 875.069C682.575 875.069 688.684 843.651 688.684 843.651Z" fill="#BA8170"/>
<path d="M688.684 843.651H707.011C707.011 843.651 707.884 848.015 707.011 851.506C706.138 854.996 699.157 853.251 693.048 851.506C686.939 849.76 688.684 843.651 688.684 843.651Z" fill="#975A57"/>
<path d="M739.204 781.005C739.204 836.67 723.25 845.397 698.187 845.397C673.124 845.397 651.831 832.111 656.297 781.005C660.661 731.072 676.615 716.424 701.678 716.424C726.741 716.424 739.204 750.272 739.204 781.005Z" fill="#518860"/>
<path d="M720.004 752.017C720.004 807.682 704.05 816.409 678.987 816.409C653.924 816.409 655.016 795.652 656.296 781.005C660.66 731.072 676.614 716.424 701.677 716.424C726.74 716.424 720.004 738.927 720.004 752.017Z" fill="#64A772"/>
<path d="M720.004 752.017C720.004 807.682 704.05 816.409 678.987 816.409C653.924 816.409 655.016 795.652 656.296 781.005C660.66 731.072 676.614 716.424 701.677 716.424C726.74 716.424 720.004 738.927 720.004 752.017Z" fill="#79C193" fill-opacity="0.8"/>
<path d="M500.494 72.4241C501.895 108.166 520.122 78.4326 554.462 77.0862C588.802 75.7398 626.251 103.29 624.849 67.5484C623.448 31.807 594.474 3.92436 560.134 5.27073C525.795 6.61711 499.093 36.6827 500.494 72.4241Z" fill="#264A00"/>
<path d="M439.643 108.7C441.044 144.442 470.018 172.324 504.358 170.978C538.698 169.631 565.4 139.566 563.999 103.824C562.597 68.0831 533.623 40.2004 499.283 41.5468C464.944 42.8931 438.242 72.9587 439.643 108.7Z" fill="#264A00"/>
<path d="M464.175 172.553C465.577 208.295 494.551 236.177 528.89 234.831C563.23 233.485 589.932 203.419 588.531 167.678C587.129 131.936 558.155 104.054 523.816 105.4C489.476 106.746 462.774 136.812 464.175 172.553Z" fill="#264A00"/>
<path d="M547.079 169.303C548.48 205.044 577.454 232.927 611.794 231.581C646.134 230.234 672.836 200.169 671.434 164.427C670.033 128.686 641.059 100.803 606.719 102.149C572.379 103.496 545.678 133.561 547.079 169.303Z" fill="#264A00"/>
<path d="M552.137 97.5115C553.538 133.253 582.512 161.136 616.852 159.789C651.192 158.443 677.894 128.377 676.492 92.6358C675.091 56.8944 646.117 29.0117 611.777 30.3581C577.437 31.7045 550.736 61.7701 552.137 97.5115Z" fill="#264A00"/>
<path d="M483.248 306.943C477.392 352.077 562.369 763.053 617.967 760.873C673.564 758.693 685.479 473.125 684.585 299.049C682.689 250.693 636.081 213.26 580.484 215.439C524.886 217.619 481.352 258.587 483.248 306.943Z" fill="#D94E00"/>
<path d="M684.511 299.669C693.897 344.347 681.882 749.283 620.283 760.422C564.62 762.604 523.653 480.635 510.886 306.476C508.985 257.968 524.617 217.971 580.281 215.789C635.944 213.606 682.609 251.161 684.511 299.669Z" fill="#FF5C00"/>
<path d="M466.292 424.877L553.075 454.569L665.406 447.456L760.373 406.256L749.049 607.668L677.159 633.072L564.828 640.185L485.536 608.715L466.292 424.877Z" fill="#FFCF24"/>
<path d="M486.57 452.264L518.801 508.868L540.562 472.303L567.907 583.951L624.481 616.859L675.571 603.198L683.508 528.413L709.414 477.25L746.486 442.322L742.465 598.963" stroke="white" stroke-width="2"/>
<path d="M672.008 566.934C673.569 591.596 667.266 593.299 654.719 594.093C636.28 603.08 623.785 585.86 623.195 576.541C622.605 567.222 615.755 537.916 628.302 537.121C640.849 536.327 671.418 557.615 672.008 566.934Z" fill="#24BEE0"/>
<path d="M733.233 469.502C739.393 489.556 738.389 492.354 729.333 491.628C720.277 490.902 714.194 503.376 715.127 490.487C716.061 477.598 724.177 468.776 733.233 469.502Z" fill="#24BEE0"/>
<path d="M547.151 499.261L495.254 557.275L497.966 600.109" stroke="white" stroke-width="2"/>
<path d="M690.341 516.251L706.444 550.418L744.12 505.027" stroke="white" stroke-width="2"/>
<path d="M663.418 508.469L644.042 475.909L620.764 458.102" stroke="white" stroke-width="2"/>
<path d="M699.444 493.804L596.666 537.821L543.967 486.043" stroke="white" stroke-width="2"/>
<path d="M568.629 495.287L629.162 473.209L643.983 509.178L599.737 528.319L568.629 495.287Z" fill="#F3FFA6"/>
<path d="M544.54 515.057L552.051 553.678L527.219 561.767L512.704 547.116L544.54 515.057Z" fill="#F3FFA6"/>
<path d="M700.515 576.858L690.881 604.836L680.784 605.475L685.974 567.353L700.515 576.858Z" fill="#F3FFA6"/>
<path d="M226.33 452.599C226.33 475.585 186.784 519.193 186.784 519.193C186.784 519.193 146.041 475.585 146.041 452.599C146.041 429.612 168.253 410.977 186.784 410.977C205.315 410.977 226.33 429.612 226.33 452.599Z" fill="#EA4444"/>
<path d="M210.621 450.249C210.621 464.226 199.681 475.557 186.185 475.557C172.69 475.557 161.749 464.226 161.749 450.249C161.749 436.272 172.69 424.941 186.185 424.941C199.681 424.941 210.621 436.272 210.621 450.249Z" fill="white"/>
<path d="M950.676 436.89C950.676 459.877 911.13 503.484 911.13 503.484C911.13 503.484 870.387 459.877 870.387 436.89C870.387 413.903 892.599 395.269 911.13 395.269C929.662 395.269 950.676 413.903 950.676 436.89Z" fill="#EA4444"/>
<path d="M934.967 434.54C934.967 448.518 924.027 459.849 910.531 459.849C897.036 459.849 886.095 448.518 886.095 434.54C886.095 420.563 897.036 409.232 910.531 409.232C924.027 409.232 934.967 420.563 934.967 434.54Z" fill="white"/>
</svg>
