<?xml version="1.0" encoding="UTF-8" standalone="no"?>
<!-- Created with Inkscape (http://www.inkscape.org/) -->

<svg
   xmlns:dc="http://purl.org/dc/elements/1.1/"
   xmlns:cc="http://creativecommons.org/ns#"
   xmlns:rdf="http://www.w3.org/1999/02/22-rdf-syntax-ns#"
   xmlns:svg="http://www.w3.org/2000/svg"
   xmlns="http://www.w3.org/2000/svg"
   xmlns:sodipodi="http://sodipodi.sourceforge.net/DTD/sodipodi-0.dtd"
   xmlns:inkscape="http://www.inkscape.org/namespaces/inkscape"
   version="1.1"
   id="svg40"
   width="1392"
   height="1348"
   viewBox="0 0 1392 1348"
   sodipodi:docname="CarteCarotte.svg"
   inkscape:version="0.92.5 (2060ec1f9f, 2020-04-08)">
  <metadata
     id="metadata46">
    <rdf:RDF>
      <cc:Work
         rdf:about="">
        <dc:format>image/svg+xml</dc:format>
        <dc:type
           rdf:resource="http://purl.org/dc/dcmitype/StillImage" />
        <dc:title></dc:title>
      </cc:Work>
    </rdf:RDF>
  </metadata>
  <defs
     id="defs44" />
  <sodipodi:namedview
     pagecolor="#ffffff"
     bordercolor="#666666"
     borderopacity="1"
     objecttolerance="10"
     gridtolerance="10"
     guidetolerance="10"
     inkscape:pageopacity="0"
     inkscape:pageshadow="2"
     inkscape:window-width="1364"
     inkscape:window-height="733"
     id="namedview42"
     showgrid="false"
     inkscape:zoom="0.49518457"
     inkscape:cx="363.80119"
     inkscape:cy="618.5812"
     inkscape:window-x="0"
     inkscape:window-y="0"
     inkscape:window-maximized="0"
     inkscape:current-layer="svg40" />
  <path
     style="fill:#409b00;stroke-width:1.33333337"
     d="m 680.43402,1186.9153 v -49.217 l 3.6667,-0.8488 c 6.4907,-1.5025 24.8384,-10.1351 30.3333,-14.2719 2.9334,-2.2083 41.7593,-40.345 86.2799,-84.7483 44.5205,-44.40328 81.17,-80.45916 81.4432,-80.12417 0.6029,0.73913 23.648,154.35597 23.6259,157.48787 -0.016,2.2272 -5.7937,5.4088 -94.6823,52.1355 -20.1667,10.6012 -53.4667,28.1393 -74,38.9736 -20.5333,10.8343 -41.6833,21.9783 -47,24.7645 l -9.6667,5.0657 z m -58.6666,34.9344 c -23.4074,-12.4251 -88.9508,-46.9355 -120.6667,-63.5342 -8.06674,-4.2217 -23.96674,-12.6267 -35.33334,-18.6778 -11.3667,-6.0511 -25.6167,-13.481 -31.6667,-16.5109 -8.9008,-4.4577 -10.9941,-6.0787 -10.9692,-8.4942 0.017,-1.6418 2.6871,-20.3851 5.9337,-41.6518 3.2466,-21.2666 8.455,-55.6166 11.5742,-76.33327 3.1193,-20.71667 6.2244,-37.66667 6.9003,-37.66667 0.6759,0 37.6199,36.32028 82.09784,80.71174 44.4779,44.3914 82.6526,81.9227 84.8327,83.4027 7.0563,4.7905 18.5864,10.2711 26.3669,12.5329 l 7.5969,2.2085 v 48.5721 c 0,26.7146 -0.45,48.5636 -1,48.5533 -0.55,-0.011 -12.1,-5.9109 -25.6666,-13.1124 z m -502.43435,-13.9548 c -5.2982,-5.6397 -4.053,-10.1691 12.9565,-47.1286 8.7205,-18.9487 19.2788,-41.6521 23.4629,-50.4521 4.184,-8.8 8.3892,-18.1 9.3447,-20.6667 0.9556,-2.5667 4.4327,-10.3667 7.7269,-17.3333 5.5924,-11.8269 38.7207,-83.6701 64.5568,-140 18.7941,-40.97651 26.0886,-56.49967 28.1946,-60 3.5236,-5.85666 10.0347,-12.15272 15.45561,-14.94512 10.9581,-5.64482 46.5467,-21.05432 48.5963,-21.04176 1.177,0.007 6.64,5.81654 12.14,12.90964 5.5,7.09308 24.9183,28.08558 43.1519,46.65001 l 33.1519,33.75349 -0.887,6.33687 c -1.5438,11.02868 -18.1819,121.23847 -23.4537,155.35587 -1.4464,9.3604 -2.6298,18.4466 -2.6298,20.1915 0,2.6485 -1.3766,3.7213 -8.3333,6.4942 -6.8719,2.739 -76.8205,29.122 -107.00001,40.3579 -4.4,1.6381 -37.6771,14.1442 -73.9492,27.7912 -72.065,27.1138 -76.3612,28.2455 -82.4851,21.7269 z m 1044.43423,-7.7107 c -15.4,-5.8278 -34,-12.9174 -41.3333,-15.7545 -7.3333,-2.8371 -26.5333,-10.0817 -42.6666,-16.0991 -42.3459,-15.794 -115.45668,-43.4262 -128.64588,-48.6217 -6.2219,-2.4509 -11.742,-5.2674 -12.2669,-6.2588 -0.525,-0.9914 -4.3143,-24.6026 -8.4207,-52.4692 -12.0919,-82.05748 -13.9171,-94.28046 -15.2308,-102.00004 -0.6864,-4.03333 -1.9879,-12.58996 -2.8921,-19.01473 l -1.6441,-11.68139 32.6075,-32.98528 c 17.9342,-18.14189 37.5451,-39.11534 43.58,-46.60765 10.0533,-12.48145 11.2388,-13.52107 14.15418,-12.41264 2.9006,1.10279 13.0895,5.67236 40.7535,18.27727 5.497,2.50469 11.715,6.17484 13.8178,8.15588 6.8174,6.42289 7.8309,8.38744 35.9073,69.60188 13.689,29.8459 56.776,123.4124 63.2415,137.3333 40.9087,88.0813 57.7053,126.083 57.7053,130.5567 0,7.4648 -4.197,10.8039 -13.4193,10.6764 -5.6629,-0.078 -13.3691,-2.4169 -35.2474,-10.6964 z M 653.37452,1077.254 c -4.5143,-1.9463 -241.19874,-238.2128 -259.39794,-258.9398 -7.0828,-8.06667 -14.7064,-17.06667 -16.9412,-20 -55.5046,-72.85203 -82.8063,-174.89104 -73.2825,-273.89032 2.075,-21.56988 2.3545,-23.60303 5.6054,-40.77635 4.9344,-26.06612 15.5433,-59.79373 27.0255,-85.919 31.9853,-72.7758 92.0984,-135.4072 164.98544,-171.89733 86.0874,-43.09871 184.4776,-50.07328 277.7315,-19.68747 99.8799,32.5448 184.3295,113.57309 221.12908,212.17047 22.6377,60.65324 31.1238,130.77404 23.4782,194 -1.5103,12.48929 -7.6433,43.89538 -11.3263,58 -13.92308,53.32108 -40.94328,105.41945 -75.02958,144.66666 -11.5498,13.29848 -260.471,261.73554 -263.3382,262.82594 -4.377,1.6647 -16.2326,1.3472 -20.6394,-0.5528 z m 53.7262,-249.55591 c 109.0305,-18.41445 196.1165,-98.68069 223.265,-205.78093 6.6387,-26.18943 7.9448,-37.63251 7.9448,-69.60296 0,-22.51823 -0.5781,-33.31096 -2.3183,-43.27607 -21.3735,-122.39769 -109.401,-211.46947 -229.5582,-232.28162 -18.664,-3.23276 -65.336,-3.23276 -84,0 -90.0051,15.58959 -164.09654,70.5427 -203.44104,150.89102 -12.8499,26.24171 -20.829,51.10757 -26.1172,81.3906 -3.2644,18.69393 -3.2644,67.8582 0,86.55213 15.7781,90.3547 67.4214,162.89834 145.25724,204.04346 26.4355,13.97421 61.1255,25.18649 88.301,28.54012 6.6,0.81448 13.5,1.73793 15.3334,2.05213 7.4228,1.27209 53.3572,-0.5052 65.3333,-2.52788 z"
     id="path3852"
     inkscape:connector-curvature="0" />
  <g
     id="g3796"
     transform="translate(-49.570773,-21.84742)">
    <path
       style="fill:#fe5b00;stroke-width:1.33333337"
       d="m 708.38551,1012.9797 c -1.32534,-1.4645 -6.85338,-15.71444 -12.28452,-31.66661 -11.60669,-34.09081 -14.59782,-43.7692 -25.65268,-83.00393 -11.8663,-42.11464 -24.52105,-94.71971 -26.80661,-111.43358 -0.79471,-5.81153 -2.57108,-15.96642 -3.94749,-22.56642 -1.37642,-6.6 -3.17831,-16.8 -4.00422,-22.66667 -0.82589,-5.86667 -2.32893,-13.96667 -3.34008,-18 -3.69728,-14.74799 -9.53634,-72.87875 -10.71434,-106.66667 -1.69862,-48.72053 5.36578,-69.18568 30.60173,-88.65134 17.76013,-13.69923 36.78961,-19.6535 62.81132,-19.6535 26.02171,0 45.05119,5.95427 62.81132,19.6535 21.77188,16.79366 29.78405,34.4332 29.8322,65.67832 l 0.0232,15.02697 -7,-4.09137 c -22.81971,-13.33767 -44.56544,-22.22894 -58.90989,-24.08675 -10.59432,-1.37211 -13.91678,-0.0655 -16.65728,6.55064 -1.36771,3.30195 -1.28624,4.65611 0.48637,8.08396 2.25437,4.35945 3.58565,4.87393 15.73981,6.08269 12.86543,1.2795 29.044,8.26414 52.00766,22.45283 l 13,8.03239 -0.0777,5.46082 c -0.0428,3.00347 -1.09274,14.82498 -2.33333,26.27004 l -2.2556,20.80919 -10.66667,-5.92928 c -5.86666,-3.26112 -16.66666,-8.34977 -24,-11.30813 -11.13284,-4.49114 -15.3308,-5.48954 -25.43645,-6.04955 -11.97163,-0.66341 -12.1346,-0.63068 -15,3.01208 -6.11204,7.7702 -1.49376,14.35827 11.17484,15.94109 16.93632,2.11606 45.78833,14.57528 58.16479,25.11742 l 3.44137,2.93132 -4.02604,24 c -2.21433,13.2 -4.26031,24.26845 -4.54664,24.59657 -0.28632,0.32812 -2.21993,-0.40725 -4.29693,-1.63417 -13.72107,-8.1052 -37.9305,-15.62907 -50.28943,-15.62907 -6.72379,0 -12.51889,4.33991 -12.51889,9.37529 0,4.35856 7.0376,10.62471 11.93276,10.62471 10.81748,0 42.80965,11.70421 49.29426,18.03412 2.05679,2.00771 1.99438,2.41204 -4.6248,29.96588 -1.67358,6.96667 -3.73628,16.11667 -4.58374,20.33333 -0.84748,4.21667 -1.66499,7.66667 -1.81667,7.66667 -0.15168,0 -4.75915,-1.41516 -10.2388,-3.14479 -12.05475,-3.80505 -22.06624,-5.88597 -32.27693,-6.70888 -6.98184,-0.56269 -7.88098,-0.31918 -10.33334,2.79848 -2.6857,3.41434 -3.53622,10.32063 -1.63853,13.30511 1.41621,2.22724 7.68535,4.41397 12.70592,4.43195 4.46277,0.016 28.02152,6.70018 32.99339,9.36105 3.54676,1.89816 3.21345,6.03796 -1.82836,22.70875 -1.87104,6.18658 -5.2968,18.14833 -7.61282,26.58166 -2.31601,8.43334 -5.88344,20.73334 -7.92761,27.33334 -2.04419,6.6 -5.01817,16.5 -6.60887,22 -9.15594,31.6576 -17.31442,54.33494 -21.22601,58.99994 -2.62121,3.1261 -8.56601,2.9564 -11.53963,-0.3294 z"
       id="path3798"
       inkscape:connector-curvature="0" />
  </g>
  <g
     id="g3778"
     transform="translate(-2093.12,-157.77892)">
    <path
       style="fill:#254900;stroke-width:1.33333337"
       d="m 2713.4338,666.66028 c -14.6671,-1.9942 -31.0186,-15.8414 -38.3933,-32.5132 -2.382,-5.38488 -2.7209,-8.30861 -2.2954,-19.80369 0.4097,-11.06643 1.0336,-14.35079 3.4777,-18.3054 4.1785,-6.76086 3.7857,-8.44475 -2.881,-12.35168 -7.5425,-4.4202 -12.2306,-10.04474 -17.3534,-20.81951 -3.7097,-7.80285 -4.1204,-9.93207 -4.1204,-21.36231 0,-11.63648 0.3625,-13.43204 4.3458,-21.52226 8.0198,-16.28884 22.839,-26.76862 40.9053,-28.9272 7.3041,-0.8727 9.6894,-1.73076 11.3333,-4.07699 8.3464,-11.91165 13.6649,-17.23017 22.1116,-22.11124 l 9.2292,-5.33333 h 14.7041 c 13.1648,0 15.5026,0.3743 22.3335,3.5759 9.1382,4.28299 20.3328,15.22656 23.7639,23.23095 l 2.4783,5.78171 14.7854,-0.1328 c 14.2209,-0.12774 15.1174,0.0359 23.484,4.28246 17.4597,8.86207 26.9738,23.34831 28.1398,42.84584 0.5513,9.2178 0.1757,12.36976 -2.232,18.73271 -4.2232,11.16072 -10.474,19.74532 -18.0489,24.78744 -3.6667,2.44068 -6.8618,5.29677 -7.1004,6.34688 -0.2385,1.05011 0.9458,4.14137 2.6319,6.86949 2.4975,4.04112 3.16,7.31214 3.5751,17.65312 0.6184,15.4024 -0.8459,21.33534 -7.857,31.83446 -5.9908,8.97132 -17.7619,17.81525 -27.0419,20.31728 -9.199,2.48017 -27.7327,1.83762 -34.5987,-1.19952 -3.2623,-1.4431 -6.3044,-3.22707 -6.7601,-3.9644 -0.4557,-0.73732 -0.8994,-11.97346 -0.986,-24.96916 l -0.1576,-23.62856 8.8561,-8.92443 c 10.7749,-10.85811 12.5507,-16.44851 6.9911,-22.00813 -4.1529,-4.15287 -7.3812,-4.33195 -12.0394,-0.66786 l -3.5131,2.7635 0.062,-11.76344 0.062,-11.76344 8.6296,-9.33334 c 4.7463,-5.13333 8.9518,-10.55674 9.3456,-12.05204 1.7338,-6.58392 -5.0957,-13.80653 -11.087,-11.72524 -1.2897,0.44803 -5.7625,4.13032 -9.9395,8.18287 l -7.5946,7.36828 -5.4093,-4.88693 c -6.731,-6.08108 -10.6803,-6.25467 -15.3746,-0.67583 -4.5713,5.43271 -3.7281,9.02703 4.0747,17.36881 l 5.8983,6.30584 v 11.57291 11.57291 l -6.7434,-6.30772 c -5.7005,-5.33211 -7.2976,-6.16866 -10.3259,-5.4086 -7.0338,1.76537 -10.4977,7.47633 -8.2001,13.51949 0.7322,1.92577 6.6338,8.7138 13.1146,15.08451 11.6042,11.40697 11.7913,11.6933 12.3024,18.83192 0.2855,3.98685 0.2191,15.01533 -0.1476,24.50773 l -0.6666,17.25889 -6,2.95838 c -6.8708,3.38773 -18.3411,4.53754 -29.7675,2.98397 z"
       id="path3780"
       inkscape:connector-curvature="0" />
  </g>
</svg>
