<svg width="1085" height="1037" viewBox="0 0 1085 1037" fill="none" xmlns="http://www.w3.org/2000/svg">
<ellipse cx="542.5" cy="518.5" rx="542.5" ry="518.5" fill="white"/>
<ellipse cx="534" cy="839.5" rx="392" ry="7.5" fill="#C4C4C4"/>
<path d="M253.569 822L259.308 732.232L259.427 732.039L265.221 734.056L291.889 811.822L334.288 781.746L266.733 732.773L266.669 732.58L266.284 732.443L261.93 729.279L332.739 689.566L350.093 708.639L347.343 726.519L265.936 727.968V729.802L348.883 728.316L352 708.043L328.265 681.956L292.769 640.538L292.137 642.252L284.619 634L256.622 639.016V637.906L254.788 637.961V639.346L213.205 646.791L252.011 724.41L257.667 728.509V728.967V729.481L168 698.232L178.643 781.866L254.733 733.387L257.41 731.883L212.545 804.221L253.569 822ZM257.236 735.496L251.873 819.286L215.157 803.349L257.236 735.496ZM331.098 781.746L292.787 808.915L267.724 735.799L331.098 781.746ZM255.632 730.71L253.716 731.782L180.055 778.73L170.154 700.909L255.632 730.71ZM262.141 724.108L259.84 727.821L259.436 727.528L256.686 640.85L283.95 635.953L291.431 644.206L262.141 724.108ZM331.254 688.301L262.645 726.813L263.837 724.859L292.787 645.755L326.89 683.24L331.254 688.301ZM254.825 641.18L257.575 726.171L253.432 723.163L215.927 648.139L254.825 641.18Z" fill="#535461"/>
<path d="M579.555 823L585.303 733.204L585.422 733.011L591.217 735.028L617.877 812.823L660.278 782.759L592.738 733.791L592.674 733.598L592.289 733.46L587.934 730.297L658.747 690.589L676.093 709.659L673.343 727.538L591.913 729.023V730.857L674.865 729.371L678 709.072L654.255 682.979L618.729 641.537L618.097 643.252L610.579 635L582.654 640.006V638.897L580.82 638.952V640.336L539.234 647.781L578.006 725.355L583.662 729.454V729.912V730.426L494 699.179L504.644 782.805L580.738 734.331L583.415 732.828L538.547 805.149L579.555 823ZM583.222 736.504L577.859 820.286L541.141 804.351L583.222 736.504ZM657.097 782.741L618.784 809.907L593.719 736.798L657.097 782.741ZM581.627 731.709L579.711 732.782L506.047 779.725L496.145 701.912L581.627 731.709ZM588.136 725.108L585.835 728.821L585.432 728.528L582.681 641.858L609.947 636.98L617.428 645.232L588.136 725.108ZM657.281 689.296L588.668 727.803L589.86 725.851L618.812 646.754L652.907 684.226L657.281 689.296ZM580.82 642.179L583.571 727.189L579.427 724.182L541.921 649.165L580.82 642.179Z" fill="#535461"/>
<path d="M257.948 622C267.687 621.989 277.382 623.298 286.769 625.891C291.611 627.226 296.351 628.903 300.955 630.91C325.482 641.542 345.195 660.893 356.279 685.22C367.363 709.546 369.031 737.119 360.961 762.605C352.89 788.09 335.655 809.677 312.588 823.189C289.521 836.7 262.263 841.177 236.087 835.753C209.91 830.329 186.675 815.389 170.877 793.824C155.079 772.259 147.84 745.601 150.561 719.007C153.282 692.413 165.769 667.774 185.607 649.855C205.445 631.936 231.224 622.011 257.957 622H257.948ZM258.315 811.105C276.924 811.098 294.971 804.725 309.459 793.045C323.946 781.364 334.002 765.08 337.957 746.895C341.911 728.711 339.526 709.721 331.198 693.079C322.87 676.437 309.099 663.145 292.174 655.409C287.868 653.438 283.398 651.851 278.814 650.665C267.608 647.757 255.911 647.268 244.502 649.232C233.093 651.195 222.232 655.566 212.644 662.054C203.055 668.542 194.958 676.997 188.892 686.857C182.825 696.718 178.929 707.757 177.461 719.241C175.993 730.724 176.988 742.389 180.379 753.458C183.77 764.528 189.479 774.748 197.128 783.439C204.776 792.13 214.188 799.092 224.736 803.862C235.285 808.633 246.728 811.102 258.306 811.105H258.315Z" fill="#535461"/>
<path d="M447.433 424.489C447.433 424.489 343.433 425.989 336.965 436.626C334.756 449.169 445.259 443.883 445.259 443.883C445.259 443.883 454.06 433.066 447.433 424.489Z" fill="#535461"/>
<path d="M447.057 424.46C447.057 424.46 336.122 425.472 334.296 437.303C332.47 449.134 445.368 439.998 445.368 439.998C445.368 439.998 454.136 432.242 447.057 424.46Z" fill="#747688"/>
<path d="M439.869 542.299L459.75 542.253L460.153 717.701L440.271 717.746L439.869 542.299Z" fill="#6C63FF"/>
<path d="M531.657 590.875L324.94 539L318 553.9L534 622L531.657 590.875Z" fill="#574FD9"/>
<path d="M532.286 591.329L324.947 537L318 549.945L543 618L532.286 591.329Z" fill="#6C63FF"/>
<path d="M418 711.657L316.656 557L311 569.749L407.716 726L418 711.657Z" fill="#6C63FF"/>
<path d="M252.677 722.329L263.357 731.198L365.683 468.66L370.266 456.912L352.698 442.47L346.503 459.809L252.677 722.329Z" fill="#6C63FF"/>
<path d="M444.933 462.989L343.521 432.989C343.521 432.989 327.432 435.489 331.432 448.489L434.517 478.945C434.517 478.945 450.1 476.627 444.933 462.989Z" fill="#535461"/>
<path d="M444.88 463.074L343.522 432.989C343.522 432.989 324.768 435.686 331.433 448.489L434.517 473.95C434.517 473.95 450.047 475.23 444.88 463.074Z" fill="#747688"/>
<path d="M479.635 706.214C483.317 689.856 490.77 674.585 501.401 661.618C505.348 656.8 509.7 652.328 514.41 648.253C532.519 632.618 555.308 623.439 579.199 622.156C603.089 620.872 626.73 627.557 646.411 641.161C666.091 654.765 680.697 674.518 687.937 697.32C695.176 720.122 694.639 744.683 686.41 767.147C678.181 789.611 662.725 808.707 642.469 821.438C622.213 834.169 598.303 839.814 574.491 837.488C550.679 835.162 528.313 824.995 510.905 808.585C493.496 792.174 482.029 770.448 478.304 746.816C477.437 741.252 477.001 735.629 477 729.998C476.994 721.997 477.878 714.02 479.635 706.214ZM585.383 811.184C602.121 811.167 618.447 805.995 632.142 796.372C645.837 786.749 656.235 773.143 661.924 757.402C667.612 741.662 668.314 724.551 663.935 708.398C659.556 692.244 650.307 677.831 637.447 667.118C624.587 656.406 608.74 649.914 592.06 648.525C575.38 647.135 558.677 650.917 544.222 659.355C529.767 667.793 518.261 680.477 511.27 695.684C504.279 710.891 502.141 727.882 505.147 744.346C508.59 763.113 518.504 780.078 533.164 792.29C547.824 804.502 566.302 811.188 585.383 811.184V811.184Z" fill="#535461"/>
<path d="M589.176 730.205C589.176 730.205 439.42 690.21 427.302 705.472C415.185 720.734 402.346 741.113 440.106 748.385C477.865 755.657 592 736.014 592 736.014L589.176 730.205Z" fill="#574FD9"/>
<path d="M591.096 725.505C591.096 725.505 437.109 692.175 424.65 704.893C412.19 717.612 398.988 734.594 437.815 740.654C476.641 746.714 594 730.345 594 730.345L591.096 725.505Z" fill="#6C63FF"/>
<path d="M586 720.273L532.701 592L532 621.5L583.285 732L586 720.273Z" fill="#574FD9"/>
<path d="M587 722L532.5 591.5L531 613.5L581.384 727L587 722Z" fill="#6C63FF"/>
<path d="M585 742C578.373 742 573 736.627 573 730C573 723.373 578.373 718 585 718C591.627 718 597 723.373 597 730C597 736.627 591.627 742 585 742Z" fill="#535461"/>
<path d="M258 741C251.373 741 246 735.851 246 729.5C246 723.149 251.373 718 258 718C264.627 718 270 723.149 270 729.5C270 735.851 264.627 741 258 741Z" fill="#535461"/>
<path d="M418.5 742C405.521 742 395 731.479 395 718.5C395 705.521 405.521 695 418.5 695C431.479 695 442 705.521 442 718.5C442 731.479 431.479 742 418.5 742Z" fill="#535461"/>
<path d="M424.817 716.457L424.824 716.463C427.582 718.525 427.516 723.274 424.677 727.071L399.019 761.381C396.18 765.178 391.643 766.584 388.885 764.521L388.878 764.516C386.12 762.454 386.186 757.704 389.025 753.908L414.683 719.597C417.522 715.801 422.059 714.395 424.817 716.457Z" fill="#6C63FF"/>
<path d="M379 756H434V773H379V756Z" fill="#574FD9"/>
<path d="M379 756H434V767.014C434 769.767 379 772.062 379 767.014V756Z" fill="#6C63FF"/>
<path d="M399.5 540.5C399.5 540.5 443.984 527.582 446.652 526.924C457.119 524.358 483.507 518.977 490.605 528.112C499.512 539.517 495.652 554.149 471.89 557C447.159 557 407.674 551.916 399.5 540.5Z" fill="#535461"/>
<path d="M399.534 540.594C399.534 540.594 442.953 526.166 445.587 525.656C455.919 523.664 481.968 519.487 488.975 526.578C497.768 535.43 493.957 546.787 470.5 549C446.087 549 407.603 549.455 399.534 540.594Z" fill="#747688"/>
<path d="M492.816 127.944C494.263 164.845 513.081 134.147 548.536 132.757C583.991 131.367 622.655 159.811 621.208 122.91C619.761 86.0081 589.847 57.2203 554.392 58.6104C518.938 60.0004 491.369 91.042 492.816 127.944Z" fill="#264A00"/>
<path d="M429.989 165.397C431.436 202.299 461.351 231.087 496.805 229.697C532.26 228.307 559.829 197.265 558.382 160.363C556.935 123.462 527.02 94.6739 491.566 96.064C456.111 97.4541 428.543 128.496 429.989 165.397Z" fill="#264A00"/>
<path d="M455.318 231.323C456.765 268.225 486.679 297.013 522.134 295.623C557.588 294.233 585.157 263.191 583.71 226.289C582.263 189.388 552.349 160.6 516.894 161.99C481.44 163.38 453.871 194.422 455.318 231.323Z" fill="#264A00"/>
<path d="M540.913 227.967C542.36 264.869 572.274 293.657 607.729 292.267C643.183 290.877 670.752 259.835 669.305 222.934C667.858 186.032 637.944 157.244 602.489 158.634C567.035 160.024 539.466 191.066 540.913 227.967Z" fill="#264A00"/>
<path d="M546.135 153.846C547.582 190.747 577.496 219.535 612.951 218.145C648.406 216.755 675.974 185.713 674.527 148.812C673.081 111.91 643.166 83.1221 607.712 84.5122C572.257 85.9022 544.688 116.944 546.135 153.846Z" fill="#264A00"/>
<path d="M475.01 370.076C468.964 416.675 556.699 840.992 614.102 838.742C671.504 836.491 683.806 541.652 682.883 361.925C680.926 312 632.805 273.351 575.402 275.602C518 277.852 473.052 320.15 475.01 370.076Z" fill="#D94E00"/>
<path d="M682.807 362.566C692.498 408.694 680.092 826.776 616.494 838.276C559.024 840.529 516.726 549.406 503.546 369.594C501.582 319.511 517.722 278.216 575.192 275.962C632.663 273.709 680.843 312.483 682.807 362.566Z" fill="#FF5C00"/>
<path d="M894.427 555.983C892.84 552.754 890.705 549.858 888.127 547.434L906.818 486.677C906.927 486.324 906.968 485.953 906.94 485.585C906.912 485.217 906.815 484.859 906.654 484.531C906.493 484.204 906.272 483.913 906.003 483.676C905.734 483.439 905.423 483.261 905.087 483.15L890.767 478.446C890.432 478.336 890.078 478.296 889.726 478.329C889.374 478.362 889.031 478.468 888.717 478.639C888.403 478.81 888.123 479.045 887.895 479.328C887.666 479.612 887.492 479.94 887.384 480.292L869.051 539.884C863.32 539.987 857.748 541.977 853.126 545.573C848.505 549.168 845.068 554.185 843.304 559.913L803.208 690.246C802.234 693.413 802.497 696.845 803.941 699.785C805.384 702.725 807.889 704.934 810.905 705.924L841.579 716.001C844.581 716.987 847.845 716.68 850.654 715.148C853.462 713.615 855.585 710.983 856.555 707.83L896.195 578.979C897.362 575.198 897.807 571.221 897.504 567.274C897.2 563.328 896.155 559.491 894.427 555.983V555.983Z" fill="#749F50"/>
<path d="M907.007 488.585L906.08 488.081C906.08 488.081 908.172 484.807 905.176 483.479C902.181 482.151 897.422 480.849 897.422 480.849L878.482 544.344C878.482 544.344 880.311 553.346 882.007 561.719C883.704 570.092 855.737 655.395 836.253 714.363L842.52 716.227C849.542 717.049 852.344 715.258 855.775 708.955L890.8 596.646C898.564 570.16 900.849 560.819 887.572 547.313L904.089 494.236L905.403 494.779L907.007 488.585Z" fill="#618C3D"/>
<path d="M890.79 596.548L837.426 579.018L814.648 653.059L868.012 670.589L890.79 596.548Z" fill="#F9E0B7"/>
<path d="M907.52 488.521L906.368 488.142L906.818 486.677C906.927 486.324 906.968 485.953 906.94 485.585C906.912 485.217 906.814 484.859 906.654 484.531C906.493 484.204 906.272 483.913 906.003 483.676C905.734 483.439 905.423 483.261 905.087 483.15L890.767 478.446C890.432 478.336 890.078 478.296 889.726 478.329C889.374 478.362 889.031 478.468 888.717 478.639C888.403 478.81 888.123 479.045 887.895 479.328C887.666 479.612 887.492 479.94 887.384 480.292L886.933 481.758L885.78 481.379L883.864 487.607L885.017 487.986L875.225 519.816L894.659 526.201L904.452 494.37L905.605 494.749L907.52 488.521Z" fill="#997F2A"/>
<path d="M806.718 555.256C806.718 555.256 802.567 532.814 809.189 517.527C810.165 515.27 808.543 512.324 806.536 512.758C797.539 514.709 781.575 516.11 782.72 539.385C782.933 543.704 780.475 547.201 777.175 547.271C759.394 547.644 755.529 568.611 754.771 580.532C754.603 583.188 756.972 585.072 758.609 583.614C769.692 573.727 791.167 577.365 791.167 577.365L806.718 555.256Z" fill="#B0BEC5"/>
<path d="M784.403 660.609C784.755 633.407 771.392 619.206 785.687 612.863C799.983 606.52 805.129 629.491 805.129 629.491L803.451 660.691L784.403 660.609Z" fill="#B0BEC5"/>
<path d="M724.315 749.762L726.872 750.751C730.11 751.996 732.188 756.341 731.531 760.473C731.345 761.648 731.293 762.837 731.369 764.017C731.669 768.71 733.961 773.166 737.449 775.349C759.613 789.198 783.542 788.41 804.508 777.746L804.522 777.729C804.522 777.729 804.525 777.725 804.528 777.715L819.78 753.385L805.912 695.946L775.644 676.067L761.017 674.622C719.053 686.314 715.615 720.647 716.637 737.597C716.976 743.192 720.111 748.143 724.315 749.762Z" fill="#B0BEC5"/>
<path d="M804.508 777.746C841.447 758.958 869.181 709.509 861.827 655.485C856.617 617.223 837.456 580.714 812.106 557.586C806.716 552.667 799.765 552.845 795.259 558.107L794.282 559.247L819.211 630.442L805.912 695.946L802.428 728.303L802.429 728.307C810.994 755.362 804.524 777.731 804.524 777.731L804.508 777.746Z" fill="#5A7582"/>
<ellipse rx="26.1354" ry="36.3666" transform="matrix(-0.999991 -0.0043246 -0.0638837 -0.997957 742.85 740.269)" fill="#B0BEC5"/>
<path d="M761.017 674.622C785.027 691.281 796.88 710.778 802.429 728.303C802.429 728.303 840.67 684.979 831.058 636.9C821.446 588.821 794.282 559.247 794.282 559.247C790.113 564.115 789.062 572.164 791.583 579.309C803.141 612.058 804.022 662.634 761.017 674.622V674.622Z" fill="#90A4AE"/>
<path d="M803.153 566.431C806.865 562.095 811.492 559.914 816.778 562.071C815.246 560.526 813.687 559.029 812.106 557.586C807.389 553.283 801.477 552.88 797.055 556.373C796.03 557.181 795.165 558.218 794.282 559.248L799.526 574.229C800.125 571.253 801.344 568.543 803.153 566.431V566.431Z" fill="#546E7A"/>
<path d="M716.835 740.69C717.023 743.626 717.602 747.63 718.402 750.568C718.402 750.568 718.402 750.568 718.912 748.97C719.082 745.235 718.912 748.97 719.082 745.235C718.057 728.284 727.923 693.499 769.887 681.805C773.223 680.875 776.292 679.713 779.115 678.345L775.644 676.067L761.017 674.622C740.69 680.284 729.403 691.261 723.283 703C718.129 712.888 715.887 725.157 716.637 737.597C716.7 738.629 716.583 739.689 716.835 740.69Z" fill="#8597A1"/>
<path d="M837.536 689.513C856.969 690.302 877.231 677.869 871.684 648.46C867.17 628.959 851.495 639.3 846.204 645.949C840.912 652.597 833.951 659.885 828.285 663.274C827.105 663.98 826.264 665.421 825.674 667.261C822.453 677.301 828.909 689.163 837.536 689.513V689.513Z" fill="#B0BEC5"/>
<path d="M827.994 728.584C830.441 724.183 830.678 718.877 828.524 716.738C826.37 714.599 822.639 716.433 820.192 720.835C817.746 725.239 817.508 730.542 819.662 732.681C821.818 734.823 825.547 732.988 827.994 728.584Z" fill="#B0BEC5"/>
<path d="M844.954 712.624C846.058 708.16 845.238 703.653 843.125 702.56C841.012 701.467 838.405 704.2 837.301 708.664C836.198 713.13 837.018 717.638 839.131 718.731C841.245 719.823 843.851 717.09 844.954 712.624Z" fill="#B0BEC5"/>
<path d="M845.933 624.907C844.87 620.182 842.29 616.823 840.17 617.408C838.048 617.993 837.191 622.297 838.253 627.025C839.316 631.75 841.896 635.107 844.018 634.524C846.138 633.939 846.997 629.635 845.933 624.907Z" fill="#B0BEC5"/>
<path d="M836.937 601.731C835.408 597.975 832.831 595.738 831.181 596.737C829.531 597.737 829.431 601.592 830.962 605.349C832.491 609.107 835.068 611.342 836.718 610.342C838.368 609.343 838.468 605.487 836.937 601.731Z" fill="#B0BEC5"/>
<path d="M770.29 681.686C812.882 669.494 811.975 619.139 800.455 586.494C798.279 580.33 798.768 573.496 801.62 568.61C797.274 562.506 794.282 559.247 794.282 559.247C791.416 562.593 790.023 567.443 790.252 572.471C790.357 574.756 790.796 577.075 791.583 579.309C798.882 599.991 801.311 625.102 793.926 644.689C791.522 651.069 788.048 656.898 783.287 661.804C777.732 667.529 770.424 671.999 761.017 674.62C764.338 676.925 767.417 679.285 770.29 681.686V681.686Z" fill="#8597A1"/>
<path d="M707.096 625.044C737.455 692.692 731.742 754.279 707.096 763.944C682.45 773.609 660.351 724.095 627.614 652.411C592.844 576.274 581.058 527.612 605.704 517.947C630.35 508.282 676.737 557.396 707.096 625.044Z" fill="#F3A543"/>
<path d="M707.972 627.289C737.687 693.5 736.28 752.138 715.794 760.172C695.308 768.206 673.664 719.749 641.693 649.559C607.737 575.01 594.94 527.877 615.426 519.843C635.911 511.81 678.258 561.078 707.972 627.289Z" fill="#F4B04F"/>
<path d="M655.737 546.142C651.101 549.678 647.128 553.613 644.695 557.082C642.262 560.551 641.566 563.27 642.761 564.639C643.957 566.009 646.945 565.918 651.069 564.387C655.193 562.855 664.78 557.863 664.752 556.472C664.724 555.082 661.341 550.803 661.341 550.803C657.683 545.442 657.337 544.923 655.737 546.142Z" fill="#F3A543"/>
<path d="M690.292 602.832C678.259 609.991 667.329 617.751 659.905 624.407C652.481 631.062 649.173 636.067 650.707 638.32C652.241 640.574 658.492 639.891 668.086 636.422C677.679 632.953 700.963 622.318 701.861 619.823C702.76 617.329 698.693 610.231 698.693 610.231C694.803 601.234 694.442 600.363 690.292 602.832Z" fill="#F3A543"/>
<path d="M672.582 571.663C665.246 577.257 658.868 583.375 654.852 588.672C650.836 593.969 649.509 598.011 651.165 599.908C652.82 601.805 657.322 601.402 663.68 598.789C670.038 596.175 684.965 588.003 685.066 585.97C685.168 583.936 680.523 577.979 680.523 577.979C675.578 570.462 675.112 569.734 672.582 571.663Z" fill="#F3A543"/>
<path d="M765.132 601.725C762.892 607.245 760.713 612.663 761.087 615.89C759.544 617.387 756.799 617.773 755.106 616.963C755.067 616.614 755.054 616.263 755.065 615.912L755.156 614.778C756.113 607.233 764.05 593.463 763.406 586.818C763.323 586.053 763.559 585.285 764.063 584.679C764.568 584.073 765.299 583.678 766.1 583.58C766.493 583.534 766.891 583.563 767.27 583.666C767.65 583.769 768.003 583.944 768.308 584.181C768.93 584.666 769.341 585.354 769.461 586.115C770.046 589.674 767.555 595.756 765.133 601.721C765.132 601.723 765.132 601.723 765.132 601.725V601.725Z" fill="#E29454"/>
<path d="M786.106 594.502C786.188 594.611 786.244 594.736 786.269 594.869C786.295 595.001 786.289 595.138 786.254 595.269L785.53 597.918C784.877 600.316 783.662 602.547 781.978 604.439C781.119 604.214 780.246 604.04 779.364 603.916C769.155 602.473 764.656 611.634 761.398 615.599C761.301 615.717 761.197 615.829 761.086 615.935C760.71 612.688 762.899 607.237 765.15 601.683C765.149 601.681 765.149 601.681 765.151 601.679C768.501 595.446 775.499 593.164 782.477 593.83L785.387 594.107C785.53 594.12 785.668 594.163 785.792 594.231C785.915 594.299 786.022 594.391 786.106 594.502V594.502Z" fill="#8DC63F"/>
<path d="M785.384 594.076L784.949 594.034C784.21 595.148 783.432 596.284 782.649 597.426C782.649 597.427 782.649 597.427 782.647 597.429C778.24 602.587 771.418 603.588 765.046 601.911C762.832 607.386 760.715 612.731 761.086 615.935C761.197 615.829 761.301 615.716 761.398 615.598C764.655 611.628 769.152 602.452 779.362 603.9C780.244 604.024 781.117 604.199 781.976 604.424C783.66 602.529 784.874 600.295 785.527 597.893L786.25 595.24C786.286 595.108 786.291 594.972 786.266 594.839C786.24 594.706 786.184 594.581 786.102 594.472C786.019 594.361 785.912 594.268 785.788 594.2C785.664 594.131 785.526 594.089 785.384 594.076V594.076Z" fill="#739937"/>
<path d="M755.068 615.914C755.057 616.267 755.071 616.619 755.109 616.97C754.796 616.825 754.513 616.628 754.275 616.387C751.1 613.105 744.619 606.342 735.921 608.555C733.249 605.004 731.076 599.322 731.11 594.644L731.133 591.106C731.135 590.932 731.175 590.76 731.252 590.601C731.329 590.443 731.441 590.301 731.58 590.187C731.719 590.073 731.882 589.988 732.057 589.939C732.233 589.889 732.417 589.877 732.597 589.901L736.262 590.399C741.618 591.128 746.5 593.674 750.015 597.573C753.53 601.472 755.445 606.463 755.409 611.634L755.16 614.775C755.108 615.173 755.078 615.553 755.068 615.914V615.914Z" fill="#8DC63F"/>
<path d="M731.696 593.043L731.146 591.394L731.122 594.747C731.086 599.406 733.256 605.063 735.926 608.599C744.624 606.39 751.101 613.123 754.274 616.39C754.513 616.63 754.795 616.826 755.108 616.97C755.07 616.621 755.056 616.27 755.067 615.918C755.077 615.56 755.108 615.181 755.16 614.784L755.41 611.656C755.425 609.842 755.197 608.037 754.733 606.283C749.874 606.756 745.003 605.722 740.85 603.335C736.697 600.948 733.486 597.337 731.696 593.043V593.043Z" fill="#739937"/>
<path d="M781.817 604.264C794.352 607.524 800.384 620.63 801.562 630.782C803.66 648.864 787.848 675.691 775.848 677.084C772.874 677.429 769.886 676.197 767.714 675.262C765.811 674.443 762.549 675.192 761.492 675.984C759.602 677.402 756.887 679.284 753.991 679.62C739.653 681.283 720.604 658.783 718.359 640.436C717.279 631.601 720.455 614.23 733.932 608.997C734.523 608.766 735.129 608.571 735.746 608.413C744.439 606.204 750.913 612.944 754.085 616.214C754.323 616.454 754.605 616.651 754.918 616.795C756.619 617.607 759.377 617.219 760.928 615.718C761.038 615.613 761.142 615.501 761.239 615.384C764.498 611.435 769 602.312 779.205 603.744C780.086 603.867 780.959 604.04 781.817 604.264V604.264Z" fill="#FC324B"/>
<path d="M738.523 646.571C732.754 638.851 726.431 621.094 736.382 609.657C736.819 609.154 737.288 608.678 737.786 608.23C737.865 608.16 737.944 608.093 738.023 608.025C737.267 608.092 736.517 608.22 735.782 608.407C735.165 608.566 734.557 608.761 733.965 608.992C720.464 614.228 717.279 631.6 718.359 640.435C720.604 658.783 739.682 681.28 754.047 679.613C756.949 679.276 759.668 677.394 761.563 675.976C762.621 675.183 765.889 674.434 767.796 675.253C769.971 676.187 772.964 677.418 775.944 677.072C780.136 676.586 784.792 673.006 788.99 667.783C774.75 671.931 749.299 660.99 738.523 646.571V646.571Z" fill="#E01B33"/>
<path d="M745.647 662.766C733.442 686.022 711.491 700.11 690.048 700.827C685.091 700.994 680.162 700.443 675.386 699.125C673.526 692.491 671.793 685.802 670.187 679.055C664.984 657.247 661.098 634.875 658.552 612.076C658.173 608.687 658.28 605.285 658.815 601.962C659.346 598.667 660.292 595.45 661.601 592.396C666.423 581.113 676.136 572.037 687.755 569.513C687.942 569.472 688.132 569.432 688.321 569.391C693.762 568.208 699.027 568.616 703.685 570.374C705.734 571.145 707.664 572.18 709.442 573.453C713.876 576.625 717.356 581.292 719.323 587.138C725.775 606.313 733.38 624.492 742.009 641.597C744.318 646.182 746.703 650.688 749.158 655.119C748.14 657.69 746.97 660.245 745.647 662.766Z" fill="#674172"/>
<path d="M665.153 585.34C670.196 607.675 705.286 698.498 698.219 700.045C691.152 701.591 688.245 701.171 683.658 700.7C679.072 700.23 660.524 594.161 665.153 585.34Z" fill="#957A9D"/>
<path d="M683.912 572.11C683.069 572.522 682.181 572.394 681.659 571.69C679.316 568.528 676.862 559.846 684.346 549.625C685.27 548.362 686.718 547.993 687.579 548.801C688.439 549.609 688.388 551.288 687.463 552.551C680.987 561.397 685.226 567.32 685.41 567.568C686.133 568.544 685.88 570.259 684.844 571.397C684.556 571.713 684.237 571.952 683.912 572.11Z" fill="#739937"/>
<path d="M693.436 576.366C699.348 590.386 687.397 604.033 687.397 604.033C679.098 594.819 679.87 585.537 680.536 582.116C680.694 581.298 680.847 580.817 680.871 580.747C680.872 580.745 680.872 580.741 680.873 580.739C680.737 581.062 680.594 581.382 680.444 581.697C674.791 593.784 661.277 601.56 661.277 601.56C656.939 588.687 665.086 578.255 670.98 572.741C673.615 570.277 676.589 568.343 679.73 566.991L682.746 565.692C684.617 564.887 686.514 564.305 688.406 563.951C688.407 563.949 688.407 563.949 688.407 563.949C695.009 562.696 701.539 564.154 706.543 568.285C715.688 575.829 712.559 586.031 712.559 586.031C698.6 585.076 694.35 578.246 693.436 576.366Z" fill="#8DC63F"/>
<path d="M688.397 563.797L687.961 564.201C688.211 563.948 688.368 563.819 688.396 563.796C686.51 564.158 684.619 564.747 682.753 565.56L679.744 566.871C676.61 568.236 673.641 570.182 671.008 572.658C665.118 578.198 656.966 588.67 661.24 601.54C661.24 601.54 674.728 593.706 680.402 581.587L680.403 581.589L680.493 582.007C679.817 585.434 679.015 594.728 687.247 603.922C682.195 589.381 688.397 563.797 688.397 563.797Z" fill="#739937"/>
<path d="M639.256 837.856C637.507 837.356 635.842 836.185 635.842 833.226C635.842 830.266 716.507 833.226 716.507 833.226C715.26 836.692 714.844 837.108 712.026 837.856C709.208 838.604 641.006 838.355 639.256 837.856Z" fill="#D19907"/>
<path d="M786.034 837.856C784.284 837.356 782.62 836.185 782.62 833.226C782.62 830.266 863.285 833.226 863.285 833.226C862.038 836.692 861.622 837.108 858.804 837.856C855.985 838.604 787.784 838.355 786.034 837.856Z" fill="#D19907"/>
<path d="M636.258 833.782C621.497 833.782 620.665 821.515 620.665 821.515L612.411 694.073L612.141 689.915H885.946L879.293 821.515C879.293 821.515 879.293 833.782 861.414 833.782H636.258Z" fill="#FFCF24"/>
<g filter="url(#filter0_b)">
<path d="M863.285 761.848C863.285 814.031 863.285 814.031 855.385 814.031C847.485 814.031 847.485 814.031 847.485 761.848C847.485 709.665 847.485 709.665 855.385 709.665C863.285 709.665 863.285 709.665 863.285 761.848Z" fill="#F3FFA6"/>
</g>
<g filter="url(#filter1_b)">
<path d="M827.942 761.848C827.942 814.031 827.942 814.031 820.042 814.031C812.141 814.031 812.141 814.031 812.141 761.848C812.141 709.665 812.141 709.665 820.042 709.665C827.942 709.665 827.942 709.665 827.942 761.848Z" fill="#F3FFA6"/>
</g>
<g filter="url(#filter2_b)">
<path d="M792.599 761.848C792.599 814.031 792.599 814.031 784.699 814.031C776.798 814.031 776.798 814.031 776.798 761.848C776.798 709.665 776.798 709.665 784.699 709.665C792.599 709.665 792.599 709.665 792.599 761.848Z" fill="#F3FFA6"/>
</g>
<g filter="url(#filter3_b)">
<path d="M757.256 761.848C757.256 814.031 757.256 814.031 749.356 814.031C741.455 814.031 741.455 814.031 741.455 761.848C741.455 709.665 741.455 709.665 749.356 709.665C757.256 709.665 757.256 709.665 757.256 761.848Z" fill="#F3FFA6"/>
</g>
<g filter="url(#filter4_b)">
<path d="M650.458 761.848C650.458 814.031 650.458 814.031 642.526 814.031C634.595 814.031 634.595 814.031 634.595 761.848C634.595 709.665 634.595 709.665 642.526 709.665C650.458 709.665 650.458 709.665 650.458 761.848Z" fill="#F3FFA6"/>
<path d="M686.57 761.848C686.57 814.031 686.57 814.031 678.638 814.031C670.706 814.031 670.706 814.031 670.706 761.848C670.706 709.665 670.706 709.665 678.638 709.665C686.57 709.665 686.57 709.665 686.57 761.848Z" fill="#F3FFA6"/>
</g>
<g filter="url(#filter5_b)">
<path d="M721.913 761.848C721.913 814.031 721.913 814.031 714.012 814.031C706.112 814.031 706.112 814.031 706.112 761.848C706.112 709.665 706.112 709.665 714.012 709.665C721.913 709.665 721.913 709.665 721.913 761.848Z" fill="#F3FFA6"/>
</g>
<rect x="598.42" y="651.869" width="302.287" height="42.8275" rx="21.4137" fill="#D19907"/>
<path d="M582.482 647.429C583.538 641.492 588.911 637.36 594.908 637.982C627.817 641.395 726.506 652.461 729.142 662.679C732.308 674.946 732.516 675.154 725.381 683.823C719.447 691.033 623.247 668.437 591.018 660.623C585.106 659.19 581.416 653.418 582.482 647.429V647.429Z" fill="#30383A"/>
<path d="M912.273 640.745C910.924 635.134 905.551 631.495 899.858 632.435C868.479 637.617 774.125 653.997 772.164 663.923C769.812 675.832 769.623 676.043 776.969 683.91C783.083 690.457 874.394 663.178 904.871 653.837C910.437 652.131 913.634 646.406 912.273 640.745V640.745Z" fill="#30383A"/>
<circle cx="784.075" cy="670.788" r="7.27651" fill="#C4C4C4"/>
<circle cx="717.131" cy="670.788" r="7.27651" fill="#C4C4C4"/>
<defs>
<filter id="filter0_b" x="843.485" y="705.665" width="23.8004" height="112.366" filterUnits="userSpaceOnUse" color-interpolation-filters="sRGB">
<feFlood flood-opacity="0" result="BackgroundImageFix"/>
<feGaussianBlur in="BackgroundImage" stdDeviation="2"/>
<feComposite in2="SourceAlpha" operator="in" result="effect1_backgroundBlur"/>
<feBlend mode="normal" in="SourceGraphic" in2="effect1_backgroundBlur" result="shape"/>
</filter>
<filter id="filter1_b" x="808.141" y="705.665" width="23.8004" height="112.366" filterUnits="userSpaceOnUse" color-interpolation-filters="sRGB">
<feFlood flood-opacity="0" result="BackgroundImageFix"/>
<feGaussianBlur in="BackgroundImage" stdDeviation="2"/>
<feComposite in2="SourceAlpha" operator="in" result="effect1_backgroundBlur"/>
<feBlend mode="normal" in="SourceGraphic" in2="effect1_backgroundBlur" result="shape"/>
</filter>
<filter id="filter2_b" x="772.798" y="705.665" width="23.8004" height="112.366" filterUnits="userSpaceOnUse" color-interpolation-filters="sRGB">
<feFlood flood-opacity="0" result="BackgroundImageFix"/>
<feGaussianBlur in="BackgroundImage" stdDeviation="2"/>
<feComposite in2="SourceAlpha" operator="in" result="effect1_backgroundBlur"/>
<feBlend mode="normal" in="SourceGraphic" in2="effect1_backgroundBlur" result="shape"/>
</filter>
<filter id="filter3_b" x="737.455" y="705.665" width="23.8004" height="112.366" filterUnits="userSpaceOnUse" color-interpolation-filters="sRGB">
<feFlood flood-opacity="0" result="BackgroundImageFix"/>
<feGaussianBlur in="BackgroundImage" stdDeviation="2"/>
<feComposite in2="SourceAlpha" operator="in" result="effect1_backgroundBlur"/>
<feBlend mode="normal" in="SourceGraphic" in2="effect1_backgroundBlur" result="shape"/>
</filter>
<filter id="filter4_b" x="630.595" y="705.665" width="59.9751" height="112.366" filterUnits="userSpaceOnUse" color-interpolation-filters="sRGB">
<feFlood flood-opacity="0" result="BackgroundImageFix"/>
<feGaussianBlur in="BackgroundImage" stdDeviation="2"/>
<feComposite in2="SourceAlpha" operator="in" result="effect1_backgroundBlur"/>
<feBlend mode="normal" in="SourceGraphic" in2="effect1_backgroundBlur" result="shape"/>
</filter>
<filter id="filter5_b" x="702.112" y="705.665" width="23.8004" height="112.366" filterUnits="userSpaceOnUse" color-interpolation-filters="sRGB">
<feFlood flood-opacity="0" result="BackgroundImageFix"/>
<feGaussianBlur in="BackgroundImage" stdDeviation="2"/>
<feComposite in2="SourceAlpha" operator="in" result="effect1_backgroundBlur"/>
<feBlend mode="normal" in="SourceGraphic" in2="effect1_backgroundBlur" result="shape"/>
</filter>
</defs>
</svg>
