<svg width="956" height="614" viewBox="0 0 956 614" fill="none" xmlns="http://www.w3.org/2000/svg">
<path d="M955.533 277C955.68 545.687 741.79 508.117 477.969 508.262C214.148 508.406 0.299128 546.21 0.151862 277.524C0.00459692 8.83719 213.869 0.406431 477.691 0.261832C741.512 0.117233 955.386 8.31355 955.533 277Z" fill="#FFCF24" fill-opacity="0.8"/>
<path d="M809.979 171.067H179.481V613.971H809.979V171.067Z" fill="#F2F2F2"/>
<path d="M182.481 174.067H806.979V610.971H182.481V174.067Z" stroke="#30383A" stroke-opacity="0.53" stroke-width="6"/>
<path d="M383.515 336.188H225.204V612.545H383.515V336.188Z" fill="#30383A"/>
<path d="M297.132 352.767H254.487V392.52H297.132V352.767Z" fill="#F2F2F2"/>
<path d="M354.232 352.767H311.587V392.52H354.232V352.767Z" fill="#F2F2F2"/>
<path d="M297.132 406.976H254.487V448.175H297.132V406.976Z" fill="#F2F2F2"/>
<path d="M354.232 406.976H311.587V448.175H354.232V406.976Z" fill="#F2F2F2"/>
<path d="M363.383 503.038C368.942 503.038 373.449 498.531 373.449 492.972C373.449 487.413 368.942 482.906 363.383 482.906C357.824 482.906 353.317 487.413 353.317 492.972C353.317 498.531 357.824 503.038 363.383 503.038Z" fill="#5A7582"/>
<path d="M749.361 330.992H436.836V572.711H749.361V330.992Z" fill="#30383A"/>
<path d="M678.555 532.424H632.164C635.408 514.318 634.662 492.455 632.164 468.942H678.555C676.124 492.455 675.398 514.318 678.555 532.424Z" fill="#FC324B"/>
<path d="M678.555 532.424H667.568C670.811 514.318 670.065 492.455 667.568 468.942H678.555C676.124 492.455 675.398 514.318 678.555 532.424Z" fill="#E01B33"/>
<path d="M655.36 510.449C661.428 510.449 666.347 505.257 666.347 498.852C666.347 492.447 661.428 487.254 655.36 487.254C649.292 487.254 644.372 492.447 644.372 498.852C644.372 505.257 649.292 510.449 655.36 510.449Z" fill="white"/>
<path d="M748.331 531.736H435.37V538.142H748.331V531.736Z" fill="#F2F2F2"/>
<path d="M595.816 309.954H590.326V368.52H595.816V309.954Z" fill="#F2F2F2"/>
<path d="M593.071 377.671C598.125 377.671 602.222 373.574 602.222 368.52C602.222 363.466 598.125 359.369 593.071 359.369C588.017 359.369 583.92 363.466 583.92 368.52C583.92 373.574 588.017 377.671 593.071 377.671Z" fill="#F2F2F2"/>
<path d="M507.643 534.866H447.823C452.006 512.582 451.044 485.673 447.823 456.734H507.643C504.508 485.673 503.572 512.582 507.643 534.866Z" fill="#F4B04F"/>
<path d="M507.643 534.866H495.435L494.824 456.734H507.643C503.98 498.852 504.591 508.618 507.643 534.866Z" fill="#F3A543"/>
<path d="M478.344 505.566C486.434 505.566 492.993 499.008 492.993 490.917C492.993 482.826 486.434 476.267 478.344 476.267C470.253 476.267 463.694 482.826 463.694 490.917C463.694 499.008 470.253 505.566 478.344 505.566Z" fill="white"/>
<path d="M536.007 468.942H528.138C527.861 468.942 527.596 469.052 527.4 469.248C527.205 469.444 527.095 469.709 527.095 469.986V473.44C527.095 473.716 527.205 473.982 527.4 474.177C527.596 474.373 527.861 474.483 528.138 474.483H529.442V479.658H534.703V474.483H536.007C536.284 474.483 536.549 474.373 536.745 474.177C536.94 473.982 537.05 473.716 537.05 473.44V469.986C537.05 469.709 536.94 469.444 536.745 469.248C536.549 469.052 536.284 468.942 536.007 468.942Z" fill="#E6E6E6"/>
<path d="M543.889 501.376C539.07 494.324 536.606 485.928 536.851 477.39C536.855 477.193 536.791 477.001 536.67 476.846C536.548 476.69 536.377 476.582 536.185 476.539V475.046H527.874V476.518H527.759C527.647 476.518 527.536 476.54 527.433 476.583C527.33 476.626 527.236 476.689 527.157 476.769C527.078 476.848 527.015 476.942 526.972 477.046C526.929 477.149 526.907 477.26 526.908 477.372C526.908 477.393 526.908 477.413 526.91 477.434C527.677 486.146 525.327 494.848 520.277 501.988C519.985 502.405 519.836 502.904 519.852 503.413L520.761 531.523C520.783 532.15 521.046 532.744 521.495 533.182C521.945 533.619 522.546 533.866 523.173 533.871H541.971C542.606 533.866 543.213 533.614 543.664 533.167C544.115 532.721 544.374 532.116 544.385 531.481L544.735 504.189C544.746 503.187 544.45 502.206 543.889 501.376Z" fill="#674172"/>
<path d="M572.638 468.942H564.769C564.492 468.942 564.227 469.052 564.031 469.248C563.835 469.444 563.726 469.709 563.726 469.986V473.44C563.726 473.716 563.835 473.982 564.031 474.177C564.227 474.373 564.492 474.483 564.769 474.483H566.073V479.658H571.334V474.483H572.638C572.915 474.483 573.18 474.373 573.376 474.177C573.571 473.982 573.681 473.716 573.681 473.44V469.986C573.681 469.849 573.654 469.713 573.602 469.586C573.549 469.46 573.472 469.345 573.376 469.248C573.279 469.151 573.164 469.074 573.037 469.022C572.911 468.969 572.775 468.942 572.638 468.942Z" fill="#E6E6E6"/>
<path d="M580.513 501.376C575.694 494.324 573.23 485.928 573.475 477.39C573.479 477.193 573.415 477.001 573.294 476.846C573.172 476.69 573.001 476.582 572.809 476.539V475.046H564.498V476.518H564.383C564.271 476.518 564.16 476.54 564.057 476.583C563.954 476.626 563.86 476.689 563.781 476.769C563.702 476.848 563.639 476.942 563.596 477.046C563.553 477.149 563.531 477.26 563.532 477.372C563.532 477.393 563.532 477.413 563.534 477.434C564.301 486.146 561.951 494.848 556.901 501.988C556.609 502.405 556.46 502.904 556.476 503.413L557.385 531.523C557.407 532.15 557.67 532.744 558.119 533.182C558.569 533.619 559.17 533.866 559.797 533.871H578.595C579.23 533.866 579.837 533.614 580.288 533.167C580.739 532.721 580.998 532.116 581.009 531.481L581.359 504.189C581.37 503.187 581.074 502.206 580.513 501.376Z" fill="#674172"/>
<path d="M609.269 468.942H601.4C601.123 468.942 600.858 469.052 600.662 469.248C600.466 469.444 600.356 469.709 600.356 469.986V473.44C600.356 473.716 600.466 473.982 600.662 474.177C600.858 474.373 601.123 474.483 601.4 474.483H602.704V479.658H607.965V474.483H609.269C609.546 474.483 609.811 474.373 610.007 474.177C610.202 473.982 610.312 473.716 610.312 473.44V469.986C610.312 469.709 610.202 469.444 610.007 469.248C609.811 469.052 609.546 468.942 609.269 468.942Z" fill="#E6E6E6"/>
<path d="M617.137 501.376C612.318 494.324 609.854 485.928 610.099 477.39C610.103 477.193 610.039 477.001 609.918 476.846C609.796 476.69 609.625 476.582 609.433 476.539V475.046H601.122V476.518H601.007C600.895 476.518 600.784 476.54 600.681 476.583C600.578 476.626 600.484 476.689 600.405 476.769C600.326 476.848 600.263 476.942 600.22 477.046C600.177 477.149 600.156 477.26 600.156 477.372C600.156 477.393 600.156 477.413 600.158 477.434C600.925 486.146 598.575 494.848 593.525 501.988C593.233 502.405 593.084 502.904 593.1 503.413L594.009 531.523C594.031 532.15 594.294 532.744 594.743 533.182C595.193 533.619 595.794 533.866 596.421 533.871H615.219C615.854 533.866 616.461 533.614 616.912 533.167C617.363 532.721 617.622 532.116 617.633 531.481L617.983 504.189C617.994 503.187 617.698 502.206 617.137 501.376Z" fill="#674172"/>
<path d="M611.411 533.852C613.242 521.034 609.854 485.525 610.099 476.987C610.103 476.79 610.039 476.598 609.918 476.443C609.796 476.287 609.625 476.179 609.433 476.136V475.046H605.307C605.307 475.046 609.433 520.423 605.307 533.852H611.411Z" fill="#957A9D"/>
<path d="M574.787 533.852C576.618 521.034 573.23 485.525 573.475 476.987C573.479 476.79 573.415 476.598 573.294 476.443C573.172 476.287 573.001 476.179 572.809 476.136V475.046H568.683C568.683 475.046 572.809 520.423 568.683 533.852H574.787Z" fill="#957A9D"/>
<path d="M538.163 533.852C539.994 521.034 536.606 485.525 536.851 476.987C536.855 476.79 536.791 476.598 536.67 476.443C536.548 476.287 536.377 476.179 536.185 476.136V475.046H532.059C532.059 475.046 536.185 520.423 532.059 533.852H538.163Z" fill="#957A9D"/>
<path d="M577.814 510.886H559.878V519.854H577.814V510.886Z" fill="white"/>
<path d="M614.445 510.886H596.509V519.854H614.445V510.886Z" fill="white"/>
<path d="M722.381 399.357H705.792C705.209 399.357 704.649 399.589 704.237 400.001C703.824 400.414 703.593 400.973 703.593 401.556V408.838C703.593 409.421 703.824 409.981 704.237 410.393C704.649 410.806 705.209 411.037 705.792 411.037H708.541V421.948H719.632V411.037H722.381C722.965 411.037 723.524 410.806 723.937 410.393C724.349 409.981 724.581 409.421 724.581 408.838V401.556C724.581 400.973 724.349 400.414 723.937 400.001C723.524 399.589 722.965 399.357 722.381 399.357Z" fill="#E6E6E6"/>
<path d="M738.997 465.998C728.838 451.131 723.644 433.43 724.16 415.431C724.169 415.016 724.034 414.61 723.778 414.283C723.522 413.956 723.161 413.727 722.756 413.636V410.49H705.235V413.592H704.994C704.758 413.593 704.524 413.639 704.306 413.73C704.088 413.821 703.89 413.953 703.723 414.121C703.556 414.288 703.424 414.486 703.334 414.704C703.244 414.923 703.198 415.156 703.198 415.392C703.198 415.436 703.2 415.48 703.203 415.523C704.583 434.764 699.923 452.019 689.22 467.288C688.605 468.166 688.29 469.219 688.324 470.291L690.239 529.552C690.286 530.873 690.84 532.126 691.788 533.049C692.736 533.971 694.003 534.492 695.326 534.503H734.955C736.292 534.492 737.573 533.959 738.524 533.018C739.474 532.077 740.02 530.802 740.044 529.464L740.782 471.927C740.804 469.815 740.181 467.747 738.997 465.998Z" fill="#749F50"/>
<path d="M739.031 466.323C728.865 451.395 723.667 433.622 724.184 415.549C724.193 415.132 724.058 414.725 723.802 414.396C723.546 414.067 723.184 413.838 722.779 413.747V410.587H716.401C716.401 410.587 716.398 426.414 716.401 426.458C717.782 445.778 723.114 454.104 729.829 467.722C729.829 467.722 728.518 479.686 729.829 486.644C731.139 493.602 729.829 534.498 729.829 534.498C729.829 534.498 736.194 534.498 737.153 534.498C738.113 534.498 740.308 531.827 740.078 530.05L740.817 472.276C740.838 470.156 740.215 468.079 739.031 466.323Z" fill="#618C3D"/>
<path d="M541.183 510.886H523.247V519.854H541.183V510.886Z" fill="white"/>
<path d="M732.724 485.682H698.23C697.72 485.682 697.215 485.793 696.751 486.006C696.287 486.219 695.875 486.53 695.542 486.918C695.21 487.305 694.965 487.76 694.825 488.251C694.685 488.742 694.652 489.258 694.73 489.762L699.943 523.644H729.874L736.205 489.876C736.301 489.365 736.283 488.839 736.152 488.335C736.022 487.831 735.782 487.362 735.449 486.962C735.117 486.562 734.7 486.239 734.229 486.018C733.758 485.797 733.244 485.682 732.724 485.682V485.682Z" fill="white"/>
<path d="M242.552 188.699L659.174 186.067L806.881 185.134L806.172 339.197C740.551 370.075 666.301 373.199 510.198 361.895C363.99 340.054 296.961 323.843 242.143 277.748L242.552 188.699Z" fill="#76706F" fill-opacity="0.4"/>
<path d="M212.579 60.1732H327.999L299.908 182.207V262.139C285.081 296.869 269.683 306.906 232.732 312.173C197.901 306.837 181.81 298.733 167.999 262.139V182.207C185.409 134.55 195.17 107.83 212.579 60.1732Z" fill="#F3705A"/>
<path d="M212.579 60.1732H327.999L299.908 182.207V262.139C285.081 296.869 269.683 306.906 232.732 312.173C197.901 306.837 181.81 298.733 167.999 262.139V182.207C185.409 134.55 195.17 107.83 212.579 60.1732Z" fill="#F3705A"/>
<path d="M298.999 182.173V262.126C284.274 296.865 268.982 306.904 232.286 312.173C197.695 306.835 181.715 298.73 167.999 262.126V182.173C298.999 182.173 167.999 182.173 298.999 182.173Z" fill="#F05540"/>
<path d="M298.999 182.173V262.126C284.274 296.865 268.982 306.904 232.286 312.173C197.695 306.835 181.715 298.73 167.999 262.126V182.173C298.999 182.173 167.999 182.173 298.999 182.173Z" fill="#F05540"/>
<path d="M439.555 60.1732H555.666L563 182.207V262.139C548.162 296.869 532.754 306.906 495.778 312.173C460.922 306.837 444.82 298.733 431 262.139V182.207C439.555 60.1732 431 182.207 439.555 60.1732Z" fill="#F3705A"/>
<path d="M439.555 60.1732H555.666L563 182.207V262.139C548.162 296.869 532.754 306.906 495.778 312.173C460.922 306.837 444.82 298.733 431 262.139V182.207C439.555 60.1732 431 182.207 439.555 60.1732Z" fill="#F3705A"/>
<path d="M563 182.173V262.126C548.162 296.865 532.754 306.904 495.778 312.173C460.922 306.835 444.82 298.73 431 262.126V182.173C563 182.173 431 182.173 563 182.173Z" fill="#F05540"/>
<path d="M563 182.173V262.126C548.162 296.865 532.754 306.904 495.778 312.173C460.922 306.835 444.82 298.73 431 262.126V182.173C563 182.173 431 182.173 563 182.173Z" fill="#F05540"/>
<path d="M672 60.1732H785.387L824 182.207V262.139C809.119 296.869 793.665 306.906 756.58 312.173C721.623 306.837 705.473 298.733 691.613 262.139V182.207C672 60.1732 691.613 179.156 672 60.1732Z" fill="#F3705A"/>
<path d="M672 60.1732H785.387L824 182.207V262.139C809.119 296.869 793.665 306.906 756.58 312.173C721.623 306.837 705.473 298.733 691.613 262.139V182.207C672 60.1732 691.613 179.156 672 60.1732Z" fill="#F3705A"/>
<path d="M824 182.173L824 262.126C809.162 296.865 793.754 306.904 756.778 312.173C721.922 306.835 705.82 298.73 692 262.126V182.173C824 182.173 692 182.173 824 182.173Z" fill="#F05540"/>
<path d="M824 182.173L824 262.126C809.162 296.865 793.754 306.904 756.778 312.173C721.922 306.835 705.82 298.73 692 262.126V182.173C824 182.173 692 182.173 824 182.173Z" fill="#F05540"/>
<path d="M327.999 60.1732H439.999L431.478 182.207V262.139C416.699 296.869 401.351 306.906 364.521 312.173C329.803 306.837 313.765 298.733 299.999 262.139V182.207C327.999 60.1732 299.999 182.207 327.999 60.1732Z" fill="#F3F3F3"/>
<path d="M431.999 182.173V262.126C417.162 296.865 401.753 306.904 364.777 312.173C329.922 306.835 313.819 298.73 299.999 262.126V182.173C431.999 182.173 299.999 182.173 431.999 182.173Z" fill="#E8EAE9"/>
<path d="M555 60.1732H672.938L693 181.597V262.139C678.239 296.869 662.911 306.906 626.127 312.173C591.453 306.837 575.435 298.733 561.687 262.139V182.207C555 60.1732 561.687 182.207 555 60.1732Z" fill="#F3F3F3"/>
<path d="M693 181.173L693 261.977C678.162 296.819 662.754 306.889 625.777 312.173C590.922 306.819 574.82 298.69 561 261.977V181.785C693 181.173 561 181.785 693 181.173Z" fill="#E8EAE9"/>
</svg>
