<svg width="1121" height="1103" viewBox="0 0 1121 1103" fill="none" xmlns="http://www.w3.org/2000/svg">
<ellipse cx="560.5" cy="551.5" rx="560.5" ry="551.5" fill="#FCFFFF"/>
<ellipse cx="570" cy="974" rx="172" ry="18" fill="#C4C4C4" fill-opacity="0.7"/>
<path d="M214.609 399.567L212.572 373.686L227.753 394.747L281.221 543.428L269.017 547.904L214.609 399.567Z" fill="#373333"/>
<path d="M258.265 383.555L256.228 357.674L271.409 378.734L324.878 527.415L312.673 531.892L258.265 383.555Z" fill="#373333"/>
<path d="M308.023 365.304L305.986 339.423L321.167 360.483L374.636 509.165L362.431 513.641L308.023 365.304Z" fill="#373333"/>
<path d="M351.68 349.292L349.643 323.41L364.823 344.471L418.292 493.152L406.087 497.629L351.68 349.292Z" fill="#373333"/>
<path d="M285.87 556.102C279.298 558.512 271.083 553.537 269.017 547.904L418.292 493.152C420.405 500.366 417.261 506.312 410.736 510.303L349.711 532.686C349.711 532.686 292.442 553.692 285.87 556.102Z" fill="#373333"/>
<path d="M336.691 539.895C335.878 537.344 337.22 534.605 339.734 533.683L354.212 528.372C356.726 527.45 359.52 528.672 360.55 531.144L379.021 575.496C380.115 578.123 378.799 581.133 376.127 582.113L357.764 588.848C355.092 589.828 352.142 588.383 351.278 585.672L336.691 539.895Z" fill="#373333"/>
<rect x="352.174" y="588.768" width="30" height="374" rx="6" transform="rotate(-20.1423 352.174 588.768)" fill="#484747"/>
<rect x="357.052" y="587.042" width="24.8259" height="373.941" rx="6" transform="rotate(-20.1423 357.052 587.042)" fill="#7E7C7C"/>
<path d="M911.223 366.025C912.913 389.799 899.365 410.132 880.962 411.44C843.44 407.927 886.031 383.984 884.341 360.21C882.651 336.437 882.92 340.225 874.841 325.348C892.658 332.837 909.533 342.251 911.223 366.025Z" fill="#303938"/>
<path d="M765.037 376.418C766.727 400.191 783.411 418.375 802.302 417.032C839.931 408.176 793.213 390.583 791.523 366.809C789.833 343.035 790.103 346.823 796.181 330.94C779.147 340.907 763.346 352.644 765.037 376.418Z" fill="#303938"/>
<path d="M501.842 504.882C505.328 496.079 516.863 479.558 645.491 470.413C736.39 463.951 773.813 473.405 787.945 479.506C793.4 481.861 796.781 486.834 798.811 492.418C805.756 511.526 822.004 559.231 824.831 594.555C826.963 621.18 822.656 655.596 818.472 680.647C815.143 700.584 798.253 715.015 778.091 716.449L559.48 731.99C536.009 733.658 515.064 717.349 511.54 694.083C507.954 670.413 503.95 640.781 502.37 617.479C499.391 573.525 498.356 513.684 501.842 504.882Z" fill="#C4C4C4"/>
<path d="M924.867 481.97C931.379 535.587 897.196 596.217 853.266 599.34C809.336 602.463 760.644 542.574 765.782 493.28C762.1 441.487 794.727 396.969 838.658 393.846C882.588 390.723 921.185 430.177 924.867 481.97Z" fill="#C4C4C4"/>
<path d="M941.429 569.385C944.125 607.306 914.296 609.427 865.254 612.913C816.212 616.4 772.631 620.013 769.862 581.066C767.094 542.12 808.432 538.151 857.474 534.665C906.516 531.178 938.588 529.413 941.429 569.385Z" fill="#FFB08B"/>
<path d="M940.013 564.979C939.997 569.527 942.345 588.678 862.146 594.325C781.946 599.973 766.796 601.568 769.302 570.089C771.809 538.61 807.552 535.3 855.537 531.888C903.522 528.477 940.123 532.979 940.013 564.979Z" fill="#FFC2A3"/>
<path d="M848.467 478.646C875.549 502.473 848.589 513.66 813.861 516.129C779.132 518.598 781.076 518.459 766.775 484.453C760.955 440.573 803.145 391.831 823.509 401.103C843.873 410.375 821.386 454.819 848.467 478.646Z" fill="#F2F2F2"/>
<path d="M940.854 390.574C928.731 387.955 910.689 390.543 910.689 390.543C910.689 390.543 889.621 397.878 887.359 410.892C885.098 423.906 896.443 419.956 896.443 419.956C896.443 419.956 910.987 419.971 922.893 413.192C934.799 406.413 933.84 399.407 940.854 390.574Z" fill="#C4C4C4"/>
<path d="M739.987 403.975C751.936 400.753 770.084 401.835 770.084 401.835C770.084 401.835 791.519 407.007 794.506 418.641C797.494 430.274 785.953 427.489 785.953 427.489C785.953 427.489 771.441 428.521 759.18 423.212C746.919 417.903 747.483 411.487 739.987 403.975Z" fill="#C4C4C4"/>
<path d="M739.987 403.975C751.936 400.753 770.084 401.835 770.084 401.835C770.084 401.835 791.519 407.007 794.506 418.641C797.494 430.274 785.953 427.489 785.953 427.489C785.953 427.489 771.441 428.521 759.18 423.212C746.919 417.903 747.483 411.487 739.987 403.975Z" fill="#C4C4C4"/>
<path d="M765.142 412.395C768.322 409.397 774.623 408.475 774.623 408.475C774.623 408.475 783.023 409.752 786.88 416.56C790.736 423.369 786.213 422.682 786.213 422.682C786.213 422.682 781.643 424.571 776.259 422.413C770.876 420.254 769.484 416.307 765.142 412.395Z" fill="#FAC5A5"/>
<path d="M765.142 412.395C768.322 409.397 774.623 408.475 774.623 408.475C774.623 408.475 783.023 409.752 786.88 416.56C790.736 423.369 786.213 422.682 786.213 422.682C786.213 422.682 781.643 424.571 776.259 422.413C770.876 420.254 769.484 416.307 765.142 412.395Z" fill="#FAC5A5"/>
<path d="M911.891 403.238C909.43 400.424 904.047 399.73 904.047 399.73C904.047 399.73 896.618 401.244 892.577 407.996C888.537 414.747 892.538 413.932 892.538 413.932C892.538 413.932 896.319 415.624 901.217 413.349C906.114 411.074 907.722 407.187 911.891 403.238Z" fill="#FAC5A5"/>
<path d="M911.891 403.238C909.43 400.424 904.047 399.73 904.047 399.73C904.047 399.73 896.618 401.244 892.577 407.996C888.537 414.747 892.538 413.932 892.538 413.932C892.538 413.932 896.319 415.624 901.217 413.349C906.114 411.074 907.722 407.187 911.891 403.238Z" fill="#FAC5A5"/>
<path d="M827.379 463.148C827.842 469.658 822.683 475.328 815.856 475.814C809.029 476.299 803.12 471.415 802.657 464.906C802.194 458.396 807.353 452.726 814.18 452.241C821.007 451.755 826.917 456.639 827.379 463.148Z" fill="#373333"/>
<path d="M889.724 458.716C890.186 465.226 885.027 470.896 878.2 471.382C871.373 471.867 865.464 466.983 865.001 460.474C864.538 453.964 869.697 448.294 876.524 447.809C883.351 447.323 889.261 452.207 889.724 458.716Z" fill="#373333"/>
<path d="M823.371 467.554C823.552 470.101 821.534 472.32 818.862 472.51C816.191 472.7 813.878 470.789 813.697 468.241C813.516 465.694 815.535 463.475 818.206 463.285C820.878 463.096 823.19 465.007 823.371 467.554Z" fill="#FCFFFF"/>
<path d="M879.266 463.58C879.447 466.127 877.428 468.346 874.757 468.536C872.086 468.726 869.773 466.815 869.592 464.268C869.411 461.721 871.43 459.502 874.101 459.312C876.773 459.122 879.085 461.033 879.266 463.58Z" fill="#FCFFFF"/>
<path d="M836.706 563.949C837.068 569.043 834.234 573.396 830.375 573.67C826.516 573.944 823.095 570.037 822.732 564.942C822.37 559.848 825.205 555.496 829.064 555.222C832.922 554.947 836.344 558.855 836.706 563.949Z" fill="#373333"/>
<path d="M890.451 560.128C890.813 565.223 887.979 569.575 884.12 569.849C880.261 570.123 876.84 566.216 876.477 561.122C876.115 556.027 878.95 551.675 882.808 551.401C886.667 551.126 890.089 555.034 890.451 560.128Z" fill="#373333"/>
<path d="M755.044 501.864C755.413 533.077 724.365 583.072 688.666 583.686C652.968 584.299 641.633 570.104 623.36 528.279C616 498.085 608.094 467.387 687.331 470.651C761.646 473.713 754.675 470.65 755.044 501.864Z" fill="#F2F2F2"/>
<path d="M633.792 155.5C633.792 197.75 610.903 163.5 570.31 163.5C529.717 163.5 486.792 197.75 486.792 155.5C486.792 113.25 519.699 79 560.292 79C600.885 79 633.792 113.25 633.792 155.5Z" fill="#264A00"/>
<path d="M707.292 195.5C707.292 237.75 674.385 272 633.792 272C593.199 272 560.292 237.75 560.292 195.5C560.292 153.25 593.199 119 633.792 119C674.385 119 707.292 153.25 707.292 195.5Z" fill="#264A00"/>
<path d="M681.292 272C681.292 314.25 648.385 348.5 607.792 348.5C567.199 348.5 534.292 314.25 534.292 272C534.292 229.75 567.199 195.5 607.792 195.5C648.385 195.5 681.292 229.75 681.292 272Z" fill="#264A00"/>
<path d="M583.292 272C583.292 314.25 550.385 348.5 509.792 348.5C469.199 348.5 436.292 314.25 436.292 272C436.292 229.75 469.199 195.5 509.792 195.5C550.385 195.5 583.292 229.75 583.292 272Z" fill="#264A00"/>
<path d="M574 187.5C574 229.75 541.093 264 500.5 264C459.907 264 427 229.75 427 187.5C427 145.25 459.907 111 500.5 111C541.093 111 574 145.25 574 187.5Z" fill="#264A00"/>
<path d="M665 431.5C674 484.5 592.722 973.5 527 973.5C461.278 973.5 434 637 427 431.5C427 374.339 480.278 328 546 328C611.722 328 665 374.339 665 431.5Z" fill="#D94E00"/>
<path d="M665 431.5C674 484.5 592.722 973.5 527 973.5C461.278 973.5 467 637 460 431.5C460 374.339 480.278 328 546 328C611.722 328 665 374.339 665 431.5Z" fill="#FF5C00"/>
<path d="M690.504 720.545C657.534 726.458 661.493 672.142 617.237 680.079C572.981 688.016 593.581 737.927 562.545 743.493C555.526 704.353 578.522 667.479 613.842 661.145C649.162 654.81 683.484 681.405 690.504 720.545Z" fill="#264A00"/>
<path d="M547.332 758.412C558.397 804.644 514.126 795.561 528.979 857.618C543.831 919.675 579.859 894.321 590.275 937.84C560.268 945.022 526.316 910.619 514.463 861.092C502.609 811.565 517.325 765.594 547.332 758.412Z" fill="#264A00"/>
<path d="M530.015 732.055L713.632 699.126L767.876 942.37L573.97 977.145L530.015 732.055Z" fill="#2CC805"/>
<path d="M848.796 710.952L835.354 647.326L883.792 682.325L793.332 826.558L807.613 764.564L848.796 710.952Z" fill="#84FA4D"/>
<path d="M750.822 892.599L883.792 682.325L937.367 720.467L869.514 724.508L756.913 926.557L750.822 892.599Z" fill="#2CC805"/>
<path d="M608.759 717.934L716.048 698.693L746.212 838.564L682.518 879.958L608.759 717.934Z" fill="#84FA4D"/>
<path d="M682.518 879.958L719.843 719.855L733.17 794.169L746.212 838.564L850.727 707.558L883.969 683.309L751.176 894.568L682.518 879.958Z" fill="#84FA4D"/>
<g filter="url(#filter0_b)">
<path d="M288.846 587.812C283.332 608.554 281.076 612.215 286.118 630.705C291.795 642.897 296.076 650.83 305.838 661.914C305.838 661.914 309.621 647.753 309.596 640.038C309.571 632.324 308.587 623.246 307.077 618.608C305.566 613.971 298.112 597.357 288.846 587.812Z" fill="#D3A31B"/>
<path d="M288.846 587.812C283.332 608.554 281.076 612.215 286.118 630.705C291.795 642.897 296.076 650.83 305.838 661.914C305.838 661.914 309.621 647.753 309.596 640.038C309.571 632.324 308.587 623.246 307.077 618.608C305.566 613.971 298.112 597.357 288.846 587.812Z" fill="#D3A31B"/>
</g>
<g filter="url(#filter1_b)">
<path d="M288.903 594.582C284.584 613.449 282.696 616.738 287.591 633.867C292.884 645.235 296.843 652.65 305.696 663.129C305.696 663.129 308.661 650.25 308.445 643.169C308.228 636.087 307.135 627.724 305.691 623.42C304.247 619.116 297.281 603.633 288.903 594.582Z" fill="#ECB922"/>
<path d="M288.903 594.582C284.584 613.449 282.696 616.738 287.591 633.867C292.884 645.235 296.843 652.65 305.696 663.129C305.696 663.129 308.661 650.25 308.445 643.169C308.228 636.087 307.135 627.724 305.691 623.42C304.247 619.116 297.281 603.633 288.903 594.582Z" fill="#ECB922"/>
</g>
<g filter="url(#filter2_b)">
<path d="M269.742 650.214C278.445 671.622 279.478 678.62 293.043 689.276C303.358 694.311 310.118 696.306 322.179 696.989C322.179 696.989 316.297 681.009 311.849 674.803C307.402 668.598 301.612 662.104 298.066 659.64C294.521 657.176 280.628 650.076 269.742 650.214Z" fill="#D3A31B"/>
<path d="M269.742 650.214C278.445 671.622 279.478 678.62 293.043 689.276C303.358 694.311 310.118 696.306 322.179 696.989C322.179 696.989 316.297 681.009 311.849 674.803C307.402 668.598 301.612 662.104 298.066 659.64C294.521 657.176 280.628 650.076 269.742 650.214Z" fill="#D3A31B"/>
</g>
<g filter="url(#filter3_b)">
<path d="M299.643 739.241C311.004 759.383 312.382 763.674 326.084 773.778C334.94 779.473 347.546 780.624 359.338 779.46C359.338 779.46 348.472 764.43 343.538 758.829C338.605 753.228 332.337 747.541 328.648 745.59C324.959 743.64 310.213 737.424 299.643 739.241Z" fill="#D3A31B"/>
<path d="M299.643 739.241C311.004 759.383 312.382 763.674 326.084 773.778C334.94 779.473 347.546 780.624 359.338 779.46C359.338 779.46 348.472 764.43 343.538 758.829C338.605 753.228 332.337 747.541 328.648 745.59C324.959 743.64 310.213 737.424 299.643 739.241Z" fill="#D3A31B"/>
</g>
<g filter="url(#filter4_b)">
<path d="M298.551 738.182C310.396 755.653 311.862 759.309 325.923 768.575C334.998 773.868 344.291 775.463 356.236 775.234C356.236 775.234 348.489 762.201 343.394 757.231C338.3 752.261 331.851 747.137 328.078 745.283C324.304 743.429 309.246 737.333 298.551 738.182Z" fill="#ECB922"/>
<path d="M298.551 738.182C310.396 755.653 311.862 759.309 325.923 768.575C334.998 773.868 344.291 775.463 356.236 775.234C356.236 775.234 348.489 762.201 343.394 757.231C338.3 752.261 331.851 747.137 328.078 745.283C324.304 743.429 309.246 737.333 298.551 738.182Z" fill="#ECB922"/>
</g>
<g filter="url(#filter5_b)">
<path d="M318.135 783.028C331.033 801.815 331.97 805.986 346.242 814.278C355.393 818.791 367.553 817.527 378.946 814.679C378.946 814.679 367.227 801.645 361.91 796.672C356.593 791.698 349.968 786.827 346.195 785.374C342.422 783.921 328.277 779.693 318.135 783.028Z" fill="#D3A31B"/>
<path d="M318.135 783.028C331.033 801.815 331.97 805.986 346.242 814.278C355.393 818.791 367.553 817.527 378.946 814.679C378.946 814.679 367.227 801.645 361.91 796.672C356.593 791.698 349.968 786.827 346.195 785.374C342.422 783.921 328.277 779.693 318.135 783.028Z" fill="#D3A31B"/>
</g>
<g filter="url(#filter6_b)">
<path d="M317.334 782.048C329.582 798.826 331.225 802.517 344.785 810.032C353.48 814.141 366.772 815.494 377.602 813.124C377.602 813.124 364.736 799.135 359.686 794.669C354.635 790.203 348.341 785.81 344.756 784.477C341.171 783.144 326.975 779.231 317.334 782.048Z" fill="#ECB922"/>
<path d="M317.334 782.048C329.582 798.826 331.225 802.517 344.785 810.032C353.48 814.141 366.772 815.494 377.602 813.124C377.602 813.124 364.736 799.135 359.686 794.669C354.635 790.203 348.341 785.81 344.756 784.477C341.171 783.144 326.975 779.231 317.334 782.048Z" fill="#ECB922"/>
</g>
<g filter="url(#filter7_b)">
<path d="M342.444 827.907C356.535 846.917 358.378 851.133 372.83 859.962C381.993 863.592 393.768 860.985 404.375 856.039C404.375 856.039 391.768 841.706 386.222 836.968C380.675 832.23 373.791 828.696 370.052 827.655C366.312 826.614 351.812 822.61 342.444 827.907Z" fill="#ECB922"/>
<path d="M342.444 827.907C356.535 846.917 358.378 851.133 372.83 859.962C381.993 863.592 393.768 860.985 404.375 856.039C404.375 856.039 391.768 841.706 386.222 836.968C380.675 832.23 373.791 828.696 370.052 827.655C366.312 826.614 351.812 822.61 342.444 827.907Z" fill="#ECB922"/>
</g>
<g filter="url(#filter8_b)">
<path d="M342.444 827.907C356.535 846.917 358.378 851.133 372.83 859.962C381.993 863.592 393.768 860.985 404.375 856.039C404.375 856.039 391.768 841.706 386.222 836.968C380.675 832.23 373.791 828.696 370.052 827.655C366.312 826.614 351.812 822.61 342.444 827.907Z" fill="#D3A31B"/>
<path d="M342.444 827.907C356.535 846.917 358.378 851.133 372.83 859.962C381.993 863.592 393.768 860.985 404.375 856.039C404.375 856.039 391.768 841.706 386.222 836.968C380.675 832.23 373.791 828.696 370.052 827.655C366.312 826.614 351.812 822.61 342.444 827.907Z" fill="#D3A31B"/>
</g>
<g filter="url(#filter9_b)">
<path d="M344.923 826.9C357.52 843.528 359.711 847.97 372.654 855.705C380.865 858.89 391.431 856.63 400.955 852.326C400.955 852.326 389.679 839.786 384.714 835.638C379.75 831.491 373.583 828.393 370.231 827.478C366.879 826.563 353.336 822.287 344.923 826.9Z" fill="#ECB922"/>
<path d="M344.923 826.9C357.52 843.528 359.711 847.97 372.654 855.705C380.865 858.89 391.431 856.63 400.955 852.326C400.955 852.326 389.679 839.786 384.714 835.638C379.75 831.491 373.583 828.393 370.231 827.478C366.879 826.563 353.336 822.287 344.923 826.9Z" fill="#ECB922"/>
</g>
<g filter="url(#filter10_b)">
<path d="M367.814 869.922C382.188 886.755 384.043 890.475 398.944 898.377C408.42 901.661 420.705 899.497 431.811 895.269C431.811 895.269 420.103 880.382 414.404 876.165C408.706 871.948 400.731 867.751 396.857 866.798C392.982 865.845 377.635 865.372 367.814 869.922Z" fill="#ECB922"/>
<path d="M367.814 869.922C382.188 886.755 384.043 890.475 398.944 898.377C408.42 901.661 420.705 899.497 431.811 895.269C431.811 895.269 420.103 880.382 414.404 876.165C408.706 871.948 400.731 867.751 396.857 866.798C392.982 865.845 377.635 865.372 367.814 869.922Z" fill="#ECB922"/>
<path d="M367.814 869.922C382.188 886.755 384.043 890.475 398.944 898.377C408.42 901.661 420.705 899.497 431.811 895.269C431.811 895.269 420.103 880.382 414.404 876.165C408.706 871.948 400.731 867.751 396.857 866.798C392.982 865.845 377.635 865.372 367.814 869.922Z" fill="#ECB922"/>
<path d="M367.814 869.922C382.188 886.755 384.043 890.475 398.944 898.377C408.42 901.661 420.705 899.497 431.811 895.269C431.811 895.269 420.103 880.382 414.404 876.165C408.706 871.948 400.731 867.751 396.857 866.798C392.982 865.845 377.635 865.372 367.814 869.922Z" fill="#ECB922"/>
</g>
<g filter="url(#filter11_b)">
<path d="M367.932 869.987C380.311 884.245 385.137 891.828 398.624 898.256C407.22 900.951 416.293 900.118 426.448 896.816C426.448 896.816 415.937 884.823 410.791 881.409C405.645 877.995 398.426 874.58 394.908 873.789C391.39 872.999 376.92 866.419 367.932 869.987Z" fill="#D3A31B"/>
<path d="M367.932 869.987C380.311 884.245 385.137 891.828 398.624 898.256C407.22 900.951 416.293 900.118 426.448 896.816C426.448 896.816 415.937 884.823 410.791 881.409C405.645 877.995 398.426 874.58 394.908 873.789C391.39 872.999 376.92 866.419 367.932 869.987Z" fill="#D3A31B"/>
<path d="M367.932 869.987C380.311 884.245 385.137 891.828 398.624 898.256C407.22 900.951 416.293 900.118 426.448 896.816C426.448 896.816 415.937 884.823 410.791 881.409C405.645 877.995 398.426 874.58 394.908 873.789C391.39 872.999 376.92 866.419 367.932 869.987Z" fill="#D3A31B"/>
<path d="M367.932 869.987C380.311 884.245 385.137 891.828 398.624 898.256C407.22 900.951 416.293 900.118 426.448 896.816C426.448 896.816 415.937 884.823 410.791 881.409C405.645 877.995 398.426 874.58 394.908 873.789C391.39 872.999 376.92 866.419 367.932 869.987Z" fill="#D3A31B"/>
</g>
<g filter="url(#filter12_b)">
<path d="M282.159 694.839C292.099 715.606 293.5 722.464 307.862 732.448C318.63 737.017 325.508 737.464 337.84 737.676C337.84 737.676 331.161 723.41 326.318 717.464C321.474 711.518 315.247 705.339 311.51 703.046C307.772 700.752 293.253 694.286 282.159 694.839Z" fill="#D3A31B"/>
<path d="M282.159 694.839C292.099 715.606 293.5 722.464 307.862 732.448C318.63 737.017 325.508 737.464 337.84 737.676C337.84 737.676 331.161 723.41 326.318 717.464C321.474 711.518 315.247 705.339 311.51 703.046C307.772 700.752 293.253 694.286 282.159 694.839Z" fill="#D3A31B"/>
</g>
<g filter="url(#filter13_b)">
<path d="M286.295 695.09C296.366 715.58 296.087 715.135 308.467 726.905C318.414 732.6 325.712 737.154 338.111 737.495C338.111 737.495 331.343 723.421 326.451 717.533C321.559 711.645 315.276 705.513 311.51 703.222C307.744 700.931 297.446 694.667 286.295 695.09Z" fill="#ECB922"/>
<path d="M286.295 695.09C296.366 715.58 296.087 715.135 308.467 726.905C318.414 732.6 325.712 737.154 338.111 737.495C338.111 737.495 331.343 723.421 326.451 717.533C321.559 711.645 315.276 705.513 311.51 703.222C307.744 700.931 297.446 694.667 286.295 695.09Z" fill="#ECB922"/>
<path d="M273.535 650.612C282.251 671.933 284.112 676.344 297.681 686.976C307.996 692.008 308.705 693.648 322.277 697.056C322.277 697.056 316.385 681.141 311.934 674.957C307.484 668.773 301.691 662.299 298.145 659.839C294.599 657.38 284.418 650.497 273.535 650.612Z" fill="#ECB922"/>
<path d="M273.535 650.612C282.251 671.933 284.112 676.344 297.681 686.976C307.996 692.008 308.705 693.648 322.277 697.056C322.277 697.056 316.385 681.141 311.934 674.957C307.484 668.773 301.691 662.299 298.145 659.839C294.599 657.38 284.418 650.497 273.535 650.612Z" fill="#ECB922"/>
<path d="M273.535 650.612C282.251 671.933 284.112 676.344 297.681 686.976C307.996 692.008 308.705 693.648 322.277 697.056C322.277 697.056 316.385 681.141 311.934 674.957C307.484 668.773 301.691 662.299 298.145 659.839C294.599 657.38 284.418 650.497 273.535 650.612Z" fill="#ECB922"/>
<path d="M273.535 650.612C282.251 671.933 284.112 676.344 297.681 686.976C307.996 692.008 308.705 693.648 322.277 697.056C322.277 697.056 316.385 681.141 311.934 674.957C307.484 668.773 301.691 662.299 298.145 659.839C294.599 657.38 284.418 650.497 273.535 650.612Z" fill="#ECB922"/>
</g>
<g filter="url(#filter14_b)">
<path d="M333.214 636.795C318.164 644.966 313.736 652.625 308.602 667.599C313.095 670.584 319.138 679.599 324.113 694.247C324.113 694.247 324.27 691.919 327.716 687.787C331.161 683.654 334.413 673.329 335.496 669.383C336.578 665.438 336.105 649.67 333.214 636.795Z" fill="#D3A31B"/>
<path d="M333.214 636.795C318.164 644.966 313.736 652.625 308.602 667.599C313.095 670.584 319.138 679.599 324.113 694.247C324.113 694.247 324.27 691.919 327.716 687.787C331.161 683.654 334.413 673.329 335.496 669.383C336.578 665.438 336.105 649.67 333.214 636.795Z" fill="#D3A31B"/>
</g>
<g filter="url(#filter15_b)">
<path d="M331.171 637.823C317.413 645.753 313.35 653.071 308.623 667.337C312.7 671.734 314.822 672.628 321.744 687.493C321.744 687.493 321.572 687.471 324.729 683.51C327.885 679.549 330.881 669.716 331.881 665.96C332.88 662.205 333.773 650.003 331.171 637.823Z" fill="#ECB922"/>
<path d="M331.171 637.823C317.413 645.753 313.35 653.071 308.623 667.337C312.7 671.734 314.822 672.628 321.744 687.493C321.744 687.493 321.572 687.471 324.729 683.51C327.885 679.549 330.881 669.716 331.881 665.96C332.88 662.205 333.773 650.003 331.171 637.823Z" fill="#ECB922"/>
</g>
<g filter="url(#filter16_b)">
<path d="M345.61 676.665C330.54 685.103 327.187 692.229 322.027 707.545C326.517 710.562 334.684 719.964 339.638 734.88C339.638 734.88 341.352 733.86 344.409 727.937C347.466 722.013 349.948 714.487 350.638 707.811C351.327 701.135 349.822 691.012 345.61 676.665Z" fill="#D3A31B"/>
<path d="M345.61 676.665C330.54 685.103 327.187 692.229 322.027 707.545C326.517 710.562 334.684 719.964 339.638 734.88C339.638 734.88 341.352 733.86 344.409 727.937C347.466 722.013 349.948 714.487 350.638 707.811C351.327 701.135 349.822 691.012 345.61 676.665Z" fill="#D3A31B"/>
</g>
<g filter="url(#filter17_b)">
<path d="M342.167 679.047C327.118 687.218 326.275 692.767 321.141 707.741C325.634 710.726 333.51 716.795 338.484 731.443C338.484 731.443 339.393 730.283 342.44 724.498C345.486 718.713 345.09 712.98 345.77 706.442C346.449 699.905 346.399 693.134 342.167 679.047Z" fill="#ECB922"/>
<path d="M342.167 679.047C327.118 687.218 326.275 692.767 321.141 707.741C325.634 710.726 333.51 716.795 338.484 731.443C338.484 731.443 339.393 730.283 342.44 724.498C345.486 718.713 345.09 712.98 345.77 706.442C346.449 699.905 346.399 693.134 342.167 679.047Z" fill="#ECB922"/>
</g>
<g filter="url(#filter18_b)">
<path d="M360.015 718.32C345.15 730.259 341.289 736.053 341.85 751.789C346.149 755.05 350.499 760.109 358.005 773.035C358.005 773.035 360.071 770.771 363.124 764.909C366.176 759.047 367.957 756.501 368.179 746.517C368.401 736.533 364.236 732.551 360.015 718.32Z" fill="#D3A31B"/>
<path d="M360.015 718.32C345.15 730.259 341.289 736.053 341.85 751.789C346.149 755.05 350.499 760.109 358.005 773.035C358.005 773.035 360.071 770.771 363.124 764.909C366.176 759.047 367.957 756.501 368.179 746.517C368.401 736.533 364.236 732.551 360.015 718.32Z" fill="#D3A31B"/>
</g>
<g filter="url(#filter19_b)">
<path d="M359.285 715.611C344.881 728.942 339.509 732.756 339.759 750.568C343.654 753.96 348.394 757.401 356.533 769.113C356.533 769.113 356.564 770.725 359.467 763.859C362.371 756.992 364.051 753.978 364.423 742.636C364.795 731.295 362.923 731.454 359.285 715.611Z" fill="#ECB922"/>
<path d="M359.285 715.611C344.881 728.942 339.509 732.756 339.759 750.568C343.654 753.96 348.394 757.401 356.533 769.113C356.533 769.113 356.564 770.725 359.467 763.859C362.371 756.992 364.051 753.978 364.423 742.636C364.795 731.295 362.923 731.454 359.285 715.611Z" fill="#ECB922"/>
</g>
<g filter="url(#filter20_b)">
<path d="M375.335 756.17C361.891 770.133 360.654 778.182 362.598 793.857C367.081 796.538 371.774 801.012 380.243 812.934C380.243 812.934 382.057 810.387 384.515 804.107C386.973 797.826 386.675 794.525 386.005 784.502C385.336 774.479 380.715 769.842 375.335 756.17Z" fill="#D3A31B"/>
<path d="M375.335 756.17C361.891 770.133 360.654 778.182 362.598 793.857C367.081 796.538 371.774 801.012 380.243 812.934C380.243 812.934 382.057 810.387 384.515 804.107C386.973 797.826 386.675 794.525 386.005 784.502C385.336 774.479 380.715 769.842 375.335 756.17Z" fill="#D3A31B"/>
</g>
<g filter="url(#filter21_b)">
<path d="M373.689 757.743C362.154 771.136 360.119 778.763 361.808 793.53C365.39 796.227 369.502 798.727 377.667 809.316C377.667 809.316 379.224 806.884 381.328 800.916C383.433 794.949 384.249 791.494 382.585 782.385C380.921 773.276 378.328 770.566 373.689 757.743Z" fill="#ECB922"/>
<path d="M373.689 757.743C362.154 771.136 360.119 778.763 361.808 793.53C365.39 796.227 369.502 798.727 377.667 809.316C377.667 809.316 379.224 806.884 381.328 800.916C383.433 794.949 384.249 791.494 382.585 782.385C380.921 773.276 378.328 770.566 373.689 757.743Z" fill="#ECB922"/>
</g>
<g filter="url(#filter22_b)">
<path d="M398.693 791.941C385.532 806.965 384.329 815.528 386.252 832.137C390.649 834.915 395.254 839.594 403.569 852.12C403.569 852.12 405.345 849.39 407.747 842.687C410.15 835.983 409.853 832.483 409.186 821.854C408.518 811.225 403.983 806.373 398.693 791.941Z" fill="#D3A31B"/>
<path d="M398.693 791.941C385.532 806.965 384.329 815.528 386.252 832.137C390.649 834.915 395.254 839.594 403.569 852.12C403.569 852.12 405.345 849.39 407.747 842.687C410.15 835.983 409.853 832.483 409.186 821.854C408.518 811.225 403.983 806.373 398.693 791.941Z" fill="#D3A31B"/>
</g>
<g filter="url(#filter23_b)">
<path d="M396.757 794.219C385.454 808.908 383.774 816.708 385.452 832.638C389.239 835.227 392.836 837.495 401.651 849.215C401.651 849.215 401.904 848.866 403.961 842.377C406.018 835.888 405.758 832.529 405.169 822.324C404.579 812.119 401.328 807.993 396.757 794.219Z" fill="#ECB922"/>
<path d="M396.757 794.219C385.454 808.908 383.774 816.708 385.452 832.638C389.239 835.227 392.836 837.495 401.651 849.215C401.651 849.215 401.904 848.866 403.961 842.377C406.018 835.888 405.758 832.529 405.169 822.324C404.579 812.119 401.328 807.993 396.757 794.219Z" fill="#ECB922"/>
</g>
<g filter="url(#filter24_b)">
<path d="M420.613 829.408C409.751 847.413 406.957 854.729 411.06 871.167C415.733 873.059 420.863 876.835 430.672 887.788C430.672 887.788 432.705 884.264 434.158 876.961C435.61 869.658 436.132 866.61 432.777 855.533C429.421 844.455 427.717 842.931 420.613 829.408Z" fill="#D3A31B"/>
<path d="M420.613 829.408C409.751 847.413 406.957 854.729 411.06 871.167C415.733 873.059 420.863 876.835 430.672 887.788C430.672 887.788 432.705 884.264 434.158 876.961C435.61 869.658 436.132 866.61 432.777 855.533C429.421 844.455 427.717 842.931 420.613 829.408Z" fill="#D3A31B"/>
</g>
<g filter="url(#filter25_b)">
<path d="M418.848 832.546C408.722 847.622 407.223 857.677 410.786 871.418C415.033 872.993 419.676 876.143 428.513 885.287C428.513 885.287 430.41 882.336 431.819 876.226C433.228 870.115 433.739 867.565 430.8 858.306C427.86 849.047 425.185 843.844 418.848 832.546Z" fill="#ECB922"/>
<path d="M418.848 832.546C408.722 847.622 407.223 857.677 410.786 871.418C415.033 872.993 419.676 876.143 428.513 885.287C428.513 885.287 430.41 882.336 431.819 876.226C433.228 870.115 433.739 867.565 430.8 858.306C427.86 849.047 425.185 843.844 418.848 832.546Z" fill="#ECB922"/>
</g>
<path d="M421.728 884.264C418.203 884.667 418.646 888.818 418.646 888.818C418.646 888.818 485.98 966.908 491.363 969.628C496.746 972.348 506.97 973.953 494.445 965.075C481.92 956.197 425.254 883.862 421.728 884.264Z" fill="#ECB922"/>
<defs>
<filter id="filter0_b" x="279.309" y="583.812" width="34.2871" height="82.102" filterUnits="userSpaceOnUse" color-interpolation-filters="sRGB">
<feFlood flood-opacity="0" result="BackgroundImageFix"/>
<feGaussianBlur in="BackgroundImage" stdDeviation="2"/>
<feComposite in2="SourceAlpha" operator="in" result="effect1_backgroundBlur"/>
<feBlend mode="normal" in="SourceGraphic" in2="effect1_backgroundBlur" result="shape"/>
</filter>
<filter id="filter1_b" x="280.69" y="590.582" width="31.7659" height="76.5471" filterUnits="userSpaceOnUse" color-interpolation-filters="sRGB">
<feFlood flood-opacity="0" result="BackgroundImageFix"/>
<feGaussianBlur in="BackgroundImage" stdDeviation="2"/>
<feComposite in2="SourceAlpha" operator="in" result="effect1_backgroundBlur"/>
<feBlend mode="normal" in="SourceGraphic" in2="effect1_backgroundBlur" result="shape"/>
</filter>
<filter id="filter2_b" x="265.742" y="646.212" width="60.4375" height="54.7768" filterUnits="userSpaceOnUse" color-interpolation-filters="sRGB">
<feFlood flood-opacity="0" result="BackgroundImageFix"/>
<feGaussianBlur in="BackgroundImage" stdDeviation="2"/>
<feComposite in2="SourceAlpha" operator="in" result="effect1_backgroundBlur"/>
<feBlend mode="normal" in="SourceGraphic" in2="effect1_backgroundBlur" result="shape"/>
</filter>
<filter id="filter3_b" x="295.643" y="734.912" width="67.6956" height="48.957" filterUnits="userSpaceOnUse" color-interpolation-filters="sRGB">
<feFlood flood-opacity="0" result="BackgroundImageFix"/>
<feGaussianBlur in="BackgroundImage" stdDeviation="2"/>
<feComposite in2="SourceAlpha" operator="in" result="effect1_backgroundBlur"/>
<feBlend mode="normal" in="SourceGraphic" in2="effect1_backgroundBlur" result="shape"/>
</filter>
<filter id="filter4_b" x="294.551" y="734.101" width="65.6852" height="45.1538" filterUnits="userSpaceOnUse" color-interpolation-filters="sRGB">
<feFlood flood-opacity="0" result="BackgroundImageFix"/>
<feGaussianBlur in="BackgroundImage" stdDeviation="2"/>
<feComposite in2="SourceAlpha" operator="in" result="effect1_backgroundBlur"/>
<feBlend mode="normal" in="SourceGraphic" in2="effect1_backgroundBlur" result="shape"/>
</filter>
<filter id="filter5_b" x="314.135" y="777.777" width="68.8112" height="43.471" filterUnits="userSpaceOnUse" color-interpolation-filters="sRGB">
<feFlood flood-opacity="0" result="BackgroundImageFix"/>
<feGaussianBlur in="BackgroundImage" stdDeviation="2"/>
<feComposite in2="SourceAlpha" operator="in" result="effect1_backgroundBlur"/>
<feBlend mode="normal" in="SourceGraphic" in2="effect1_backgroundBlur" result="shape"/>
</filter>
<filter id="filter6_b" x="313.334" y="777.051" width="68.268" height="41.2376" filterUnits="userSpaceOnUse" color-interpolation-filters="sRGB">
<feFlood flood-opacity="0" result="BackgroundImageFix"/>
<feGaussianBlur in="BackgroundImage" stdDeviation="2"/>
<feComposite in2="SourceAlpha" operator="in" result="effect1_backgroundBlur"/>
<feBlend mode="normal" in="SourceGraphic" in2="effect1_backgroundBlur" result="shape"/>
</filter>
<filter id="filter7_b" x="338.444" y="821.225" width="69.931" height="44.4338" filterUnits="userSpaceOnUse" color-interpolation-filters="sRGB">
<feFlood flood-opacity="0" result="BackgroundImageFix"/>
<feGaussianBlur in="BackgroundImage" stdDeviation="2"/>
<feComposite in2="SourceAlpha" operator="in" result="effect1_backgroundBlur"/>
<feBlend mode="normal" in="SourceGraphic" in2="effect1_backgroundBlur" result="shape"/>
</filter>
<filter id="filter8_b" x="338.444" y="821.225" width="69.931" height="44.4338" filterUnits="userSpaceOnUse" color-interpolation-filters="sRGB">
<feFlood flood-opacity="0" result="BackgroundImageFix"/>
<feGaussianBlur in="BackgroundImage" stdDeviation="2"/>
<feComposite in2="SourceAlpha" operator="in" result="effect1_backgroundBlur"/>
<feBlend mode="normal" in="SourceGraphic" in2="effect1_backgroundBlur" result="shape"/>
</filter>
<filter id="filter9_b" x="340.923" y="820.796" width="64.0325" height="40.4053" filterUnits="userSpaceOnUse" color-interpolation-filters="sRGB">
<feFlood flood-opacity="0" result="BackgroundImageFix"/>
<feGaussianBlur in="BackgroundImage" stdDeviation="2"/>
<feComposite in2="SourceAlpha" operator="in" result="effect1_backgroundBlur"/>
<feBlend mode="normal" in="SourceGraphic" in2="effect1_backgroundBlur" result="shape"/>
</filter>
<filter id="filter10_b" x="363.814" y="862.167" width="71.997" height="41.8031" filterUnits="userSpaceOnUse" color-interpolation-filters="sRGB">
<feFlood flood-opacity="0" result="BackgroundImageFix"/>
<feGaussianBlur in="BackgroundImage" stdDeviation="2"/>
<feComposite in2="SourceAlpha" operator="in" result="effect1_backgroundBlur"/>
<feBlend mode="normal" in="SourceGraphic" in2="effect1_backgroundBlur" result="shape"/>
</filter>
<filter id="filter11_b" x="363.932" y="864.934" width="66.5155" height="38.9308" filterUnits="userSpaceOnUse" color-interpolation-filters="sRGB">
<feFlood flood-opacity="0" result="BackgroundImageFix"/>
<feGaussianBlur in="BackgroundImage" stdDeviation="2"/>
<feComposite in2="SourceAlpha" operator="in" result="effect1_backgroundBlur"/>
<feBlend mode="normal" in="SourceGraphic" in2="effect1_backgroundBlur" result="shape"/>
</filter>
<filter id="filter12_b" x="278.159" y="690.805" width="63.6813" height="50.8708" filterUnits="userSpaceOnUse" color-interpolation-filters="sRGB">
<feFlood flood-opacity="0" result="BackgroundImageFix"/>
<feGaussianBlur in="BackgroundImage" stdDeviation="2"/>
<feComposite in2="SourceAlpha" operator="in" result="effect1_backgroundBlur"/>
<feBlend mode="normal" in="SourceGraphic" in2="effect1_backgroundBlur" result="shape"/>
</filter>
<filter id="filter13_b" x="269.535" y="646.611" width="72.5764" height="94.8847" filterUnits="userSpaceOnUse" color-interpolation-filters="sRGB">
<feFlood flood-opacity="0" result="BackgroundImageFix"/>
<feGaussianBlur in="BackgroundImage" stdDeviation="2"/>
<feComposite in2="SourceAlpha" operator="in" result="effect1_backgroundBlur"/>
<feBlend mode="normal" in="SourceGraphic" in2="effect1_backgroundBlur" result="shape"/>
</filter>
<filter id="filter14_b" x="304.602" y="632.795" width="35.4263" height="65.4521" filterUnits="userSpaceOnUse" color-interpolation-filters="sRGB">
<feFlood flood-opacity="0" result="BackgroundImageFix"/>
<feGaussianBlur in="BackgroundImage" stdDeviation="2"/>
<feComposite in2="SourceAlpha" operator="in" result="effect1_backgroundBlur"/>
<feBlend mode="normal" in="SourceGraphic" in2="effect1_backgroundBlur" result="shape"/>
</filter>
<filter id="filter15_b" x="304.623" y="633.823" width="32.2546" height="57.6695" filterUnits="userSpaceOnUse" color-interpolation-filters="sRGB">
<feFlood flood-opacity="0" result="BackgroundImageFix"/>
<feGaussianBlur in="BackgroundImage" stdDeviation="2"/>
<feComposite in2="SourceAlpha" operator="in" result="effect1_backgroundBlur"/>
<feBlend mode="normal" in="SourceGraphic" in2="effect1_backgroundBlur" result="shape"/>
</filter>
<filter id="filter16_b" x="318.027" y="672.665" width="36.7713" height="66.215" filterUnits="userSpaceOnUse" color-interpolation-filters="sRGB">
<feFlood flood-opacity="0" result="BackgroundImageFix"/>
<feGaussianBlur in="BackgroundImage" stdDeviation="2"/>
<feComposite in2="SourceAlpha" operator="in" result="effect1_backgroundBlur"/>
<feBlend mode="normal" in="SourceGraphic" in2="effect1_backgroundBlur" result="shape"/>
</filter>
<filter id="filter17_b" x="317.141" y="675.047" width="32.9517" height="60.3959" filterUnits="userSpaceOnUse" color-interpolation-filters="sRGB">
<feFlood flood-opacity="0" result="BackgroundImageFix"/>
<feGaussianBlur in="BackgroundImage" stdDeviation="2"/>
<feComposite in2="SourceAlpha" operator="in" result="effect1_backgroundBlur"/>
<feBlend mode="normal" in="SourceGraphic" in2="effect1_backgroundBlur" result="shape"/>
</filter>
<filter id="filter18_b" x="337.799" y="714.32" width="34.389" height="62.7157" filterUnits="userSpaceOnUse" color-interpolation-filters="sRGB">
<feFlood flood-opacity="0" result="BackgroundImageFix"/>
<feGaussianBlur in="BackgroundImage" stdDeviation="2"/>
<feComposite in2="SourceAlpha" operator="in" result="effect1_backgroundBlur"/>
<feBlend mode="normal" in="SourceGraphic" in2="effect1_backgroundBlur" result="shape"/>
</filter>
<filter id="filter19_b" x="335.751" y="711.611" width="32.7186" height="61.6669" filterUnits="userSpaceOnUse" color-interpolation-filters="sRGB">
<feFlood flood-opacity="0" result="BackgroundImageFix"/>
<feGaussianBlur in="BackgroundImage" stdDeviation="2"/>
<feComposite in2="SourceAlpha" operator="in" result="effect1_backgroundBlur"/>
<feBlend mode="normal" in="SourceGraphic" in2="effect1_backgroundBlur" result="shape"/>
</filter>
<filter id="filter20_b" x="357.872" y="752.17" width="32.6063" height="64.7637" filterUnits="userSpaceOnUse" color-interpolation-filters="sRGB">
<feFlood flood-opacity="0" result="BackgroundImageFix"/>
<feGaussianBlur in="BackgroundImage" stdDeviation="2"/>
<feComposite in2="SourceAlpha" operator="in" result="effect1_backgroundBlur"/>
<feBlend mode="normal" in="SourceGraphic" in2="effect1_backgroundBlur" result="shape"/>
</filter>
<filter id="filter21_b" x="357.287" y="753.743" width="30.1862" height="59.5733" filterUnits="userSpaceOnUse" color-interpolation-filters="sRGB">
<feFlood flood-opacity="0" result="BackgroundImageFix"/>
<feGaussianBlur in="BackgroundImage" stdDeviation="2"/>
<feComposite in2="SourceAlpha" operator="in" result="effect1_backgroundBlur"/>
<feBlend mode="normal" in="SourceGraphic" in2="effect1_backgroundBlur" result="shape"/>
</filter>
<filter id="filter22_b" x="381.528" y="787.941" width="32.1313" height="68.1793" filterUnits="userSpaceOnUse" color-interpolation-filters="sRGB">
<feFlood flood-opacity="0" result="BackgroundImageFix"/>
<feGaussianBlur in="BackgroundImage" stdDeviation="2"/>
<feComposite in2="SourceAlpha" operator="in" result="effect1_backgroundBlur"/>
<feBlend mode="normal" in="SourceGraphic" in2="effect1_backgroundBlur" result="shape"/>
</filter>
<filter id="filter23_b" x="380.897" y="790.219" width="28.6936" height="62.9957" filterUnits="userSpaceOnUse" color-interpolation-filters="sRGB">
<feFlood flood-opacity="0" result="BackgroundImageFix"/>
<feGaussianBlur in="BackgroundImage" stdDeviation="2"/>
<feComposite in2="SourceAlpha" operator="in" result="effect1_backgroundBlur"/>
<feBlend mode="normal" in="SourceGraphic" in2="effect1_backgroundBlur" result="shape"/>
</filter>
<filter id="filter24_b" x="405.259" y="825.408" width="34.0253" height="66.3799" filterUnits="userSpaceOnUse" color-interpolation-filters="sRGB">
<feFlood flood-opacity="0" result="BackgroundImageFix"/>
<feGaussianBlur in="BackgroundImage" stdDeviation="2"/>
<feComposite in2="SourceAlpha" operator="in" result="effect1_backgroundBlur"/>
<feBlend mode="normal" in="SourceGraphic" in2="effect1_backgroundBlur" result="shape"/>
</filter>
<filter id="filter25_b" x="405.037" y="828.546" width="31.9088" height="60.741" filterUnits="userSpaceOnUse" color-interpolation-filters="sRGB">
<feFlood flood-opacity="0" result="BackgroundImageFix"/>
<feGaussianBlur in="BackgroundImage" stdDeviation="2"/>
<feComposite in2="SourceAlpha" operator="in" result="effect1_backgroundBlur"/>
<feBlend mode="normal" in="SourceGraphic" in2="effect1_backgroundBlur" result="shape"/>
</filter>
</defs>
</svg>
