<svg width="1213" height="936" viewBox="0 0 1213 936" fill="none" xmlns="http://www.w3.org/2000/svg">
<path d="M1206.23 375.153C1256.27 639.138 980.706 653.021 649.436 715.821C318.166 778.622 56.6387 866.559 6.59359 602.574C-43.4515 338.589 223.547 279.511 554.817 216.711C886.087 153.91 1156.18 111.168 1206.23 375.153Z" fill="#FFCF24" fill-opacity="0.8"/>
<path d="M1047.7 146.507C1047.7 187.103 1025.71 154.194 986.703 154.194C947.698 154.194 906.453 187.103 906.453 146.507C906.453 105.91 938.072 73 977.077 73C1016.08 73 1047.7 105.91 1047.7 146.507Z" fill="#264A00"/>
<path d="M1118.32 184.942C1118.32 225.538 1086.71 258.448 1047.7 258.448C1008.7 258.448 977.077 225.538 977.077 184.942C977.077 144.345 1008.7 111.435 1047.7 111.435C1086.71 111.435 1118.32 144.345 1118.32 184.942Z" fill="#264A00"/>
<path d="M1093.34 258.448C1093.34 299.045 1061.72 331.955 1022.72 331.955C983.713 331.955 952.094 299.045 952.094 258.448C952.094 217.852 983.713 184.942 1022.72 184.942C1061.72 184.942 1093.34 217.852 1093.34 258.448Z" fill="#264A00"/>
<path d="M999.177 258.448C999.177 299.045 967.557 331.955 928.553 331.955C889.548 331.955 857.929 299.045 857.929 258.448C857.929 217.852 889.548 184.942 928.553 184.942C967.557 184.942 999.177 217.852 999.177 258.448Z" fill="#264A00"/>
<path d="M990.248 177.255C990.248 217.851 958.629 250.761 919.624 250.761C880.619 250.761 849 217.851 849 177.255C849 136.658 880.619 103.748 919.624 103.748C958.629 103.748 990.248 136.658 990.248 177.255Z" fill="#264A00"/>
<path d="M1077.69 411.707C1086.34 462.634 1008.24 932.5 945.087 932.5C881.937 932.5 855.726 609.167 849 411.707C849 356.783 900.193 312.257 963.344 312.257C1026.49 312.257 1077.69 356.783 1077.69 411.707Z" fill="#D94E00"/>
<path d="M1077.69 411.707C1086.34 462.634 1008.24 932.5 945.087 932.5C881.937 932.5 887.435 609.167 880.709 411.707C880.709 356.783 900.193 312.257 963.344 312.257C1026.49 312.257 1077.69 356.783 1077.69 411.707Z" fill="#FF5C00"/>
<path d="M305.387 72.5594C310.308 116.637 282.44 83.5717 240.091 88.3004C197.742 93.029 156.95 133.761 152.029 89.6834C147.107 45.6062 177.448 6.0413 219.796 1.31265C262.145 -3.416 300.465 28.4823 305.387 72.5594Z" fill="#264A00"/>
<path d="M386.725 105.727C391.647 149.805 361.306 189.37 318.958 194.098C276.609 198.827 238.289 166.929 233.367 122.851C228.446 78.7743 258.786 39.2094 301.135 34.4807C343.483 29.7521 381.804 61.6503 386.725 105.727Z" fill="#264A00"/>
<path d="M368.512 188.565C373.434 232.642 343.093 272.207 300.745 276.936C258.396 281.664 220.076 249.766 215.154 205.689C210.232 161.612 240.573 122.047 282.922 117.318C325.27 112.59 363.59 144.488 368.512 188.565Z" fill="#264A00"/>
<path d="M266.273 199.981C271.195 244.058 240.855 283.623 198.506 288.352C156.157 293.08 117.837 261.182 112.916 217.105C107.994 173.028 138.334 133.463 180.683 128.734C223.032 124.006 261.352 155.904 266.273 199.981Z" fill="#264A00"/>
<path d="M246.736 112.909C251.658 156.986 221.317 196.551 178.969 201.279C136.62 206.008 98.2998 174.11 93.3781 130.033C88.4565 85.9554 118.797 46.3905 161.146 41.6619C203.494 36.9332 241.814 68.8315 246.736 112.909Z" fill="#264A00"/>
<path d="M398.818 342.805C414.381 397.049 386.551 916.666 317.987 924.322C249.422 931.978 181.766 584.102 150.524 370.529C143.866 310.895 194.05 256.346 262.615 248.69C331.179 241.034 392.159 283.171 398.818 342.805Z" fill="#D94E00"/>
<path d="M398.818 342.805C414.381 397.048 386.551 916.666 317.987 924.322C249.422 931.978 216.193 580.258 184.952 366.685C178.293 307.051 194.05 256.346 262.615 248.69C331.179 241.034 392.159 283.171 398.818 342.805Z" fill="#FF5C00"/>
<path d="M324.911 401.831C328.807 429.843 340.824 405.025 367.738 401.282C394.651 397.539 426.269 416.289 422.373 388.277C418.478 360.265 393.502 340.591 366.588 344.334C339.675 348.077 321.015 373.819 324.911 401.831Z" fill="#193000"/>
<path d="M279.868 435.128C283.764 463.14 308.739 482.814 335.653 479.072C362.566 475.329 381.226 449.586 377.33 421.575C373.435 393.563 348.459 373.889 321.546 377.631C294.632 381.374 275.973 407.117 279.868 435.128Z" fill="#193000"/>
<path d="M304.16 483.451C308.055 511.463 333.031 531.137 359.944 527.394C386.858 523.652 405.518 497.909 401.622 469.897C397.726 441.885 372.751 422.211 345.837 425.954C318.924 429.697 300.264 455.439 304.16 483.451Z" fill="#193000"/>
<path d="M369.135 474.415C373.03 502.427 398.006 522.101 424.919 518.358C451.833 514.616 470.492 488.873 466.597 460.861C462.701 432.85 437.725 413.176 410.812 416.918C383.899 420.661 365.239 446.403 369.135 474.415Z" fill="#193000"/>
<path d="M367.504 417.534C371.4 445.546 396.375 465.22 423.289 461.478C450.202 457.735 468.862 431.992 464.966 403.981C461.071 375.969 436.095 356.295 409.182 360.037C382.268 363.78 363.609 389.523 367.504 417.534Z" fill="#193000"/>
<path d="M329.668 587.699C328.588 623.668 427.564 940.384 471.138 934.325C514.712 928.265 501.771 702.648 487.464 565.754C482.194 527.856 442.597 502.045 399.023 508.105C355.449 514.165 324.398 549.8 329.668 587.699Z" fill="#BAA73E"/>
<path d="M487.454 566.248C498.331 600.667 520.521 920.211 472.925 933.788C429.3 939.855 375.032 721.203 351.378 585.172C346.091 547.154 355.265 514.463 398.891 508.396C442.516 502.329 482.167 528.23 487.454 566.248Z" fill="#D9CD5F"/>
<path d="M662.239 101.243C663.266 144.022 639.258 109.9 598.157 110.886C557.056 111.873 514.426 147.594 513.399 104.816C512.373 62.0376 544.859 26.5591 585.96 25.5725C627.061 24.586 661.212 58.465 662.239 101.243Z" fill="#193000"/>
<path d="M737.63 139.958C738.657 182.736 706.171 218.215 665.07 219.201C623.969 220.188 589.818 186.309 588.791 143.53C587.764 100.752 620.251 65.2733 661.352 64.2867C702.452 63.3002 736.604 97.1792 737.63 139.958Z" fill="#193000"/>
<path d="M713.164 218.047C714.191 260.825 681.705 296.304 640.604 297.29C599.503 298.277 565.352 264.398 564.325 221.619C563.298 178.841 595.785 143.362 636.886 142.376C677.986 141.389 712.138 175.268 713.164 218.047Z" fill="#193000"/>
<path d="M613.938 220.428C614.965 263.207 582.479 298.685 541.378 299.672C500.277 300.658 466.126 266.779 465.099 224.001C464.072 181.223 496.558 145.744 537.659 144.757C578.76 143.771 612.911 177.65 613.938 220.428Z" fill="#193000"/>
<path d="M602.476 135.097C603.503 177.875 571.017 213.354 529.916 214.34C488.815 215.327 454.664 181.448 453.637 138.669C452.61 95.8911 485.097 60.4126 526.197 59.4261C567.298 58.4395 601.449 92.3185 602.476 135.097Z" fill="#193000"/>
<path d="M700.545 379.938C710.946 433.383 640.535 930.476 573.991 932.074C507.446 933.671 471.649 593.624 459.567 385.722C458.178 327.846 510.996 279.633 577.541 278.035C644.085 276.438 699.156 322.062 700.545 379.938Z" fill="#520D27"/>
<path d="M700.545 379.938C710.945 433.383 640.535 930.476 573.99 932.074C507.446 933.671 505.062 592.821 492.98 384.92C491.591 327.044 510.996 279.633 577.54 278.035C644.085 276.438 699.155 322.062 700.545 379.938Z" fill="#7E0F39"/>
<path d="M690.213 219.903C689.9 256.832 710.16 227.065 745.64 227.366C781.121 227.666 818.386 257.92 818.699 220.991C819.012 184.062 790.503 153.882 755.022 153.582C719.542 153.281 690.525 182.975 690.213 219.903Z" fill="#3A6F03"/>
<path d="M625.674 254.322C625.361 291.25 653.87 321.43 689.351 321.731C724.831 322.031 753.847 292.338 754.16 255.41C754.473 218.481 725.963 188.301 690.483 188C655.002 187.7 625.986 217.393 625.674 254.322Z" fill="#3A6F03"/>
<path d="M647.833 321.379C647.52 358.308 676.029 388.488 711.51 388.789C746.99 389.089 776.007 359.396 776.319 322.467C776.632 285.539 748.123 255.358 712.642 255.058C677.162 254.758 648.146 284.451 647.833 321.379Z" fill="#3A6F03"/>
<path d="M733.49 322.105C733.178 359.033 761.687 389.214 797.168 389.514C832.648 389.814 861.664 360.121 861.977 323.193C862.29 286.264 833.78 256.084 798.3 255.783C762.819 255.483 733.803 285.176 733.49 322.105Z" fill="#3A6F03"/>
<path d="M742.238 248.316C741.925 285.244 770.434 315.424 805.915 315.725C841.395 316.025 870.411 286.332 870.724 249.404C871.037 212.475 842.528 182.295 807.047 181.994C771.567 181.694 742.55 211.387 742.238 248.316Z" fill="#3A6F03"/>
<path d="M660.893 460.912C652.634 507.17 720.057 935.186 777.501 935.672C834.946 936.158 861.279 642.24 868.918 462.673C869.341 412.711 823.116 371.814 765.671 371.328C708.227 370.841 661.316 410.95 660.893 460.912Z" fill="#D56424"/>
<path d="M868.812 463.309C876.294 509.847 843.987 926.863 779.913 935.321C722.4 934.834 694.019 642.026 689.419 461.79C689.843 411.671 707.932 371.191 765.445 371.678C822.957 372.165 869.236 413.19 868.812 463.309Z" fill="#FF8A00"/>
</svg>
